<?xml version="1.0" encoding="utf-8"?>
<!-- Generator: Adobe Illustrator 23.0.3, SVG Export Plug-In . SVG Version: 6.00 Build 0)  -->
<svg version="1.1" id="Слой_1" xmlns="http://www.w3.org/2000/svg" xmlns:xlink="http://www.w3.org/1999/xlink" x="0px" y="0px"
	 viewBox="0 0 100 100" style="enable-background:new 0 0 100 100;" xml:space="preserve">
<style type="text/css">
	.st0{fill:none;stroke:#FFFFFF;stroke-miterlimit:10;}
	.st1{fill:#FFFFFF;}
	.st2{fill:none;stroke:#FFFFFF;stroke-width:0.75;stroke-miterlimit:10;}
	.st3{fill:none;stroke:#FFFFFF;stroke-width:0.5;stroke-miterlimit:10;}
</style>
<path class="st0" d="M14.2,50c0,17.9,13.3,33.1,31.2,35.6c-1.4,4.3-3,9.1-4.8,13.8h4.5c1.8-4.5,3.2-9.1,4.4-13.4h1.2
	c19.1-0.7,34.4-15.8,35.1-34.6c0.7-19.8-15-36.5-35.1-37.2C49.6,9.4,48,4.9,46.1,0.6h-4.8c2.1,4.4,3.8,9,5.1,13.7
	c-4.3,0.5-8.5,1.8-12.4,3.8l0.8,3.1c3.9-2,8.1-3.3,12.4-3.8c5.2,21.4,4.8,43.8-1.1,65C29.7,80.1,17.5,66.2,17.4,50
	c0.2-6.9,2.4-13.5,6.4-19.1l-3.2-1.2C16.5,35.5,14.2,42.6,14.2,50L14.2,50z"/>
<path class="st1" d="M47.6,17.5c-14.2,0.9-28,11.4-30.1,28.4c-2.2,16.8,10.1,33.9,29,36.6C51.8,63.3,53.5,38.7,47.6,17.5z"/>
<path class="st2" d="M36.2,29.5L21,25.6l10.7-11.1L36.2,29.5z"/>
<path class="st3" d="M98.9,8.9V91c0,4.3-3.5,7.8-7.8,7.8H8.9c-4.3,0-7.8-3.5-7.8-7.8V8.9c0-4.3,3.5-7.8,7.8-7.8H91
	C95.4,1.1,98.9,4.6,98.9,8.9z"/>
</svg>
