<?xml version="1.0" encoding="utf-8"?>
<!-- Generator: Adobe Illustrator 23.0.3, SVG Export Plug-In . SVG Version: 6.00 Build 0)  -->
<svg version="1.1" id="Слой_1" xmlns="http://www.w3.org/2000/svg" xmlns:xlink="http://www.w3.org/1999/xlink" x="0px" y="0px"
	 viewBox="0 0 300 200" style="enable-background:new 0 0 300 200;" xml:space="preserve">
<style type="text/css">
	.st0{fill:none;stroke:#FFFFFF;stroke-width:3;stroke-miterlimit:10;}
	.st1{fill:none;stroke:#FFFFFF;stroke-width:2;stroke-miterlimit:10;}
	.st2{fill:#FFFFFF;}
</style>
<g>
	<g>
		<g>
			<polygon class="st0" points="118.2,93.2 113.9,87.2 113.9,21.2 118.2,27.3 			"/>
			<polygon class="st0" points="126.7,93.2 122.4,87.2 122.4,21.2 126.7,27.3 			"/>
			<polygon class="st0" points="135.2,93.2 130.9,87.2 130.9,21.2 135.2,27.3 			"/>
			<polygon class="st0" points="144.2,93.2 140,87.2 140,21.2 144.2,27.3 			"/>
			<polygon class="st0" points="152.7,93.2 148.5,87.2 148.5,21.2 152.7,27.3 			"/>
			<polygon class="st0" points="161.2,93.2 157,87.2 157,21.2 161.2,27.3 			"/>
			<polygon class="st0" points="169.1,93.2 164.8,87.2 164.8,21.2 169.1,27.3 			"/>
			<polygon class="st0" points="177.6,93.2 173.3,87.2 173.3,21.2 177.6,27.3 			"/>
			<polygon class="st0" points="186.1,93.2 181.8,87.2 181.8,21.2 186.1,27.3 			"/>
		</g>
		<g>
			<polygon class="st0" points="120.8,100.3 120.7,129.7 138.9,129.7 138.9,100.3 			"/>
			<rect x="140.8" y="100.3" class="st0" width="18.1" height="29.4"/>
			<rect x="161.1" y="100.3" class="st0" width="18.1" height="29.4"/>
		</g>
		<line class="st0" x1="99.8" y1="99.8" x2="199.8" y2="99.8"/>
		<path class="st0" d="M100.4,24.5c34.1,5.4,67.3,5.8,99.4,0"/>
		<line class="st0" x1="100.1" y1="22.7" x2="100.1" y2="127.7"/>
		<line class="st0" x1="200.1" y1="23" x2="200.1" y2="127.7"/>
		<path class="st0" d="M100.1,1.9c34.6,8.6,67.8,8.2,100,0"/>
		<g>
			<rect x="187.1" y="125.6" class="st0" width="12.7" height="24"/>
			<line class="st0" x1="187.1" y1="129.9" x2="199.8" y2="129.9"/>
		</g>
		<g>
			<rect x="100.4" y="125.6" class="st0" width="12.7" height="24"/>
			<line class="st0" x1="100.4" y1="129.9" x2="113.2" y2="129.9"/>
		</g>
		<path class="st0" d="M99.8,87.8c33.6,4,66.9,4,100,0"/>
		<g>
			<polygon class="st0" points="247.4,35.7 247.4,19.6 200.1,3.1 200.1,23.1 199.9,149.6 287.4,123.9 287.4,46.5 			"/>
			<polygon class="st0" points="237.1,22.1 243.7,24.3 243.7,29.4 237.1,27.5 			"/>
			<polygon class="st0" points="222.5,17.6 229.8,20 229.8,25.6 222.5,23.5 			"/>
			<polygon class="st0" points="205.6,11.8 214.7,14.8 214.7,22.1 205.6,19.4 			"/>
			<polygon class="st0" points="282.5,109.4 205.6,124.2 205.6,111.7 282.5,101.4 			"/>
			<polygon class="st0" points="282.5,93.3 205.6,99.3 205.6,86.8 282.5,85.3 			"/>
			<polygon class="st0" points="282.5,77.3 205.6,74.3 205.6,61.8 282.5,69.2 			"/>
			<polygon class="st0" points="282.5,61.2 205.6,49.4 205.6,36.9 282.5,53.1 			"/>
			<polygon class="st0" points="219.2,132.8 214.4,127.7 214.4,33 219.2,41.6 			"/>
			<polygon class="st0" points="230,130.2 225.3,125.2 225.3,33.2 230,41.6 			"/>
			<polygon class="st0" points="238.2,125.6 234.4,120.9 234.4,34.4 238.2,42.3 			"/>
			<polygon class="st0" points="246.9,123.2 242.9,118.8 242.9,36.8 246.9,44.3 			"/>
			<polygon class="st0" points="256.8,120.8 253.2,116.7 253.2,40.4 256.8,47.4 			"/>
			<polygon class="st0" points="266.5,119.6 262.9,115.6 262.9,42.2 266.5,48.9 			"/>
			<polygon class="st0" points="276.2,118.4 272.6,114.6 272.6,44 276.2,50.5 			"/>
		</g>
		<g>
			<polygon class="st0" points="12.6,46.5 12.6,123.9 100.1,149.6 99.9,23.1 99.9,3.1 52.6,19.6 52.6,35.7 			"/>
			<polygon class="st0" points="62.9,27.5 56.3,29.4 56.3,24.3 62.9,22.1 			"/>
			<polygon class="st0" points="77.5,23.5 70.2,25.6 70.2,20 77.5,17.6 			"/>
			<polygon class="st0" points="94.4,19.4 85.3,22.1 85.3,14.8 94.4,11.8 			"/>
			<polygon class="st0" points="17.5,101.4 94.4,111.7 94.4,124.2 17.5,109.4 			"/>
			<polygon class="st0" points="17.5,85.3 94.4,86.8 94.4,99.3 17.5,93.3 			"/>
			<polygon class="st0" points="17.5,69.2 94.4,61.8 94.4,74.3 17.5,77.3 			"/>
			<polygon class="st0" points="17.5,53.1 94.4,36.9 94.4,49.4 17.5,61.2 			"/>
			<polygon class="st0" points="80.8,132.8 85.6,127.7 85.6,33 80.8,41.6 			"/>
			<polygon class="st0" points="70,130.2 74.7,125.2 74.7,33.2 70,41.6 			"/>
			<polygon class="st0" points="61.8,125.6 65.6,120.9 65.6,34.4 61.8,42.3 			"/>
			<polygon class="st0" points="53.1,123.2 57.1,118.8 57.1,36.8 53.1,44.3 			"/>
			<polygon class="st0" points="43.2,120.8 46.8,116.7 46.8,40.4 43.2,47.4 			"/>
			<polygon class="st0" points="33.5,119.6 37.1,115.6 37.1,42.2 33.5,48.9 			"/>
			<polygon class="st0" points="23.8,118.4 27.4,114.6 27.4,44 23.8,50.5 			"/>
		</g>
		<g>
			<path class="st1" d="M113.2,149.6c23.6-1.4,48.3-1.3,73.9,0"/>
			<path class="st1" d="M113.2,147.8c23.6-1.4,48.3-1.3,73.9,0"/>
			<path class="st1" d="M113.2,146c23.6-1.4,48.3-1.3,73.9,0"/>
			<path class="st1" d="M113.2,144.1c23.6-1.4,48.3-1.3,73.9,0"/>
			<path class="st1" d="M113.2,142.3c23.6-1.4,48.3-1.3,73.9,0"/>
			<path class="st1" d="M113.2,140.5c23.6-1.4,48.3-1.3,73.9,0"/>
			<path class="st1" d="M113.2,138.6c23.6-1.4,48.3-1.3,73.9,0"/>
			<path class="st1" d="M113.2,136.8c23.6-1.4,48.3-1.3,73.9,0"/>
			<path class="st1" d="M113.2,134.9c23.6-1.4,48.3-1.3,73.9,0"/>
			<path class="st1" d="M113.2,133.1c23.6-1.4,48.3-1.3,73.9,0"/>
			<path class="st1" d="M113.2,131.3c23.6-1.4,48.3-1.3,73.9,0"/>
		</g>
		<line class="st0" x1="113.2" y1="129.7" x2="187.1" y2="129.7"/>
	</g>
	<g>
		<path class="st2" d="M28.3,198.1H11.4c-1.3,0-2.3-0.4-3.1-1.2c-0.8-0.8-1.2-1.8-1.2-3v-25.2c0-1.2,0.4-2.2,1.2-3
			c0.8-0.8,1.8-1.2,3.1-1.2h16.9c1.3,0,2.3,0.4,3.1,1.2c0.8,0.8,1.2,1.8,1.2,3v25.2c0,1.2-0.4,2.2-1.2,3
			C30.5,197.7,29.5,198.1,28.3,198.1z M21.9,173h-4.2v16.7h4.2V173z"/>
		<path class="st2" d="M45.9,164.5v6.9l-2,5.1h-3.9V173h-3.7v-8.4H45.9z"/>
		<path class="st2" d="M48.8,198.1v-8.6l11.4-15.4V173h-9.8l-1.6-4.3v-4.2h23.5v8.6l-11.5,15.4v1.1h11.9v8.4H48.8z"/>
		<path class="st2" d="M79.9,164.5h21v4.2l-1.7,4.3H86.3v16.7h4.2v-11.3h10.6v19.6H79.9c-1.3,0-2.3-0.4-3.1-1.2
			c-0.8-0.8-1.2-1.8-1.2-3v-25.2c0-1.2,0.4-2.2,1.2-3C77.7,164.9,78.7,164.5,79.9,164.5z"/>
		<path class="st2" d="M115.5,198.1H105v-33.5h10.5V198.1z"/>
		<path class="st2" d="M140.5,198.1h-21.1v-33.5h21.1c1.2,0,2.2,0.4,3,1.2c0.8,0.8,1.2,1.8,1.2,3v25.2c0,1.2-0.4,2.2-1.2,3
			C142.7,197.7,141.7,198.1,140.5,198.1z M129.9,173v16.7h4.3V173H129.9z"/>
		<path class="st2" d="M148.6,164.5h21.2c1.2,0,2.2,0.4,3,1.2c0.8,0.8,1.2,1.8,1.2,3v13.2c0,0.8-0.3,1.6-0.8,2.3
			c-0.5,0.8-1.2,1.2-2,1.5l3.3,8.2v4.2h-10.4l-2.9-10.4h-2.1v10.4h-10.6V164.5z M163.4,173h-4.2v6.3h4.2V173z"/>
		<path class="st2" d="M198.6,198.1h-16.9c-1.3,0-2.3-0.4-3.1-1.2c-0.8-0.8-1.2-1.8-1.2-3v-25.2c0-1.2,0.4-2.2,1.2-3
			c0.8-0.8,1.8-1.2,3.1-1.2h16.9c1.3,0,2.3,0.4,3.1,1.2c0.8,0.8,1.2,1.8,1.2,3v25.2c0,1.2-0.4,2.2-1.2,3
			C200.9,197.7,199.8,198.1,198.6,198.1z M192.2,173H188v16.7h4.2V173z"/>
		<path class="st2" d="M219.5,198.1l-2.6-16.1h-0.8v16.1h-10.4v-4.2l3.5-29.4H221l2.6,13.2h0.7l2.6-13.2h11.9l3.4,29.4v4.2h-10.3
			V182H231l-2.6,16.1H219.5z"/>
		<path class="st2" d="M267.7,198.1h-22.6v-33.5h22.6v4.2L266,173h-10.4v3.7H266v8.4h-10.4v4.6h12.1V198.1z"/>
		<path class="st2" d="M275.5,173h-6.3v-8.4h23.7v4.2l-1.7,4.3h-5.1v25.1h-10.6V173z"/>
	</g>
</g>
</svg>
