<?xml version="1.0" encoding="utf-8"?>
<!-- Generator: Adobe Illustrator 23.0.3, SVG Export Plug-In . SVG Version: 6.00 Build 0)  -->
<svg version="1.1" id="Слой_1" xmlns="http://www.w3.org/2000/svg" xmlns:xlink="http://www.w3.org/1999/xlink" x="0px" y="0px"
	 viewBox="0 0 300 200" style="enable-background:new 0 0 300 200;" xml:space="preserve">
<style type="text/css">
	.st0{fill:none;stroke:#FFFFFF;stroke-width:0.5;stroke-miterlimit:10;}
	.st1{fill:#FFFFFF;}
</style>
<g>
	<path class="st0" d="M106.8,2c30.6,7.7,60.1,7.3,88.6,0"/>
	<g>
		<g>
			<polygon class="st0" points="122.8,80.6 119,75.2 119,16.2 122.8,21.6 			"/>
			<polygon class="st0" points="130.3,80.6 126.5,75.2 126.5,16.2 130.3,21.6 			"/>
			<polygon class="st0" points="137.8,80.6 134,75.2 134,16.2 137.8,21.6 			"/>
			<polygon class="st0" points="145.9,80.6 142.1,75.2 142.1,16.2 145.9,21.6 			"/>
			<polygon class="st0" points="153.4,80.6 149.6,75.2 149.6,16.2 153.4,21.6 			"/>
			<polygon class="st0" points="160.9,80.6 157.1,75.2 157.1,16.2 160.9,21.6 			"/>
			<polygon class="st0" points="167.9,80.6 164.1,75.2 164.1,16.2 167.9,21.6 			"/>
			<polygon class="st0" points="175.4,80.6 171.6,75.2 171.6,16.2 175.4,21.6 			"/>
			<polygon class="st0" points="182.9,80.6 179.1,75.2 179.1,16.2 182.9,21.6 			"/>
		</g>
		<g>
			<polygon class="st0" points="125.1,87.9 125,114.2 141.1,114.2 141.1,87.9 			"/>
			<rect x="142.8" y="87.9" class="st0" width="16" height="26.3"/>
			<rect x="160.8" y="87.9" class="st0" width="16" height="26.3"/>
		</g>
		<line class="st0" x1="106.5" y1="85.5" x2="195.1" y2="85.5"/>
		<path class="st0" d="M107.1,19.1c30.2,4.9,59.6,5.2,88,0"/>
		<g>
			<rect x="183.8" y="109.6" class="st0" width="11.3" height="21.5"/>
			<line class="st0" x1="183.8" y1="113.4" x2="195.1" y2="113.4"/>
		</g>
		<g>
			<rect x="107.1" y="109.6" class="st0" width="11.3" height="21.5"/>
			<line class="st0" x1="107.1" y1="113.4" x2="118.3" y2="113.4"/>
		</g>
		<path class="st0" d="M106.5,75.8c29.8,3.6,59.3,3.6,88.6,0"/>
		<g>
			<polygon class="st0" points="237.2,29.1 237.2,14.8 195.3,0 195.3,17.8 195.1,131 272.6,108.1 272.6,38.8 			"/>
			<polygon class="st0" points="228.1,17 234,18.9 234,23.5 228.1,21.8 			"/>
			<polygon class="st0" points="215.2,13 221.6,15.1 221.6,20.1 215.2,18.2 			"/>
			<polygon class="st0" points="200.2,7.8 208.2,10.4 208.2,16.9 200.2,14.6 			"/>
			<polygon class="st0" points="268.3,95.1 200.2,108.3 200.2,97.1 268.3,87.9 			"/>
			<polygon class="st0" points="268.3,80.7 200.2,86 200.2,74.8 268.3,73.5 			"/>
			<polygon class="st0" points="268.3,66.3 200.2,63.7 200.2,52.5 268.3,59.1 			"/>
			<polygon class="st0" points="268.3,51.9 200.2,41.4 200.2,30.2 268.3,44.7 			"/>
			<polygon class="st0" points="212.2,116 207.9,111.4 207.9,26.7 212.2,34.4 			"/>
			<polygon class="st0" points="221.8,113.7 217.7,109.2 217.7,26.9 221.8,34.4 			"/>
			<polygon class="st0" points="229.1,109.6 225.7,105.4 225.7,28 229.1,35.1 			"/>
			<polygon class="st0" points="236.8,107.4 233.2,103.4 233.2,30.1 236.8,36.8 			"/>
			<polygon class="st0" points="245.5,105.3 242.3,101.6 242.3,33.4 245.5,39.6 			"/>
			<polygon class="st0" points="254.1,104.2 250.9,100.6 250.9,35 254.1,41 			"/>
			<polygon class="st0" points="262.7,103.1 259.5,99.7 259.5,36.6 262.7,42.3 			"/>
		</g>
		<g>
			<polygon class="st0" points="29.3,38.8 29.3,108.1 106.8,131 106.6,17.8 106.6,0 64.7,14.8 64.7,29.1 			"/>
			<polygon class="st0" points="73.8,21.8 67.9,23.5 67.9,18.9 73.8,17 			"/>
			<polygon class="st0" points="86.7,18.2 80.3,20.1 80.3,15.1 86.7,13 			"/>
			<polygon class="st0" points="101.7,14.6 93.7,16.9 93.7,10.4 101.7,7.8 			"/>
			<polygon class="st0" points="33.6,87.9 101.7,97.1 101.7,108.3 33.6,95.1 			"/>
			<polygon class="st0" points="33.6,73.5 101.7,74.8 101.7,86 33.6,80.7 			"/>
			<polygon class="st0" points="33.6,59.1 101.7,52.5 101.7,63.7 33.6,66.3 			"/>
			<polygon class="st0" points="33.6,44.7 101.7,30.2 101.7,41.4 33.6,51.9 			"/>
			<polygon class="st0" points="89.7,116 94,111.4 94,26.7 89.7,34.4 			"/>
			<polygon class="st0" points="80.1,113.7 84.2,109.2 84.2,26.9 80.1,34.4 			"/>
			<polygon class="st0" points="72.8,109.6 76.2,105.4 76.2,28 72.8,35.1 			"/>
			<polygon class="st0" points="65.1,107.4 68.7,103.4 68.7,30.1 65.1,36.8 			"/>
			<polygon class="st0" points="56.4,105.3 59.6,101.6 59.6,33.4 56.4,39.6 			"/>
			<polygon class="st0" points="47.8,104.2 51,100.6 51,35 47.8,41 			"/>
			<polygon class="st0" points="39.2,103.1 42.4,99.7 42.4,36.6 39.2,42.3 			"/>
		</g>
		<g>
			<path class="st0" d="M118.3,131c20.9-1.3,42.8-1.2,65.5,0"/>
			<path class="st0" d="M118.3,129.4c20.9-1.3,42.8-1.2,65.5,0"/>
			<path class="st0" d="M118.3,127.8c20.9-1.3,42.8-1.2,65.5,0"/>
			<path class="st0" d="M118.3,126.1c20.9-1.3,42.8-1.2,65.5,0"/>
			<path class="st0" d="M118.3,124.5c20.9-1.3,42.8-1.2,65.5,0"/>
			<path class="st0" d="M118.3,122.8c20.9-1.3,42.8-1.2,65.5,0"/>
			<path class="st0" d="M118.3,121.2c20.9-1.3,42.8-1.2,65.5,0"/>
			<path class="st0" d="M118.3,119.5c20.9-1.3,42.8-1.2,65.5,0"/>
			<path class="st0" d="M118.3,117.9c20.9-1.3,42.8-1.2,65.5,0"/>
			<path class="st0" d="M118.3,116.3c20.9-1.3,42.8-1.2,65.5,0"/>
		</g>
	</g>
	<g>
		<path class="st1" d="M18.8,183.7h6.5l2.5,9.7l2.5-9.7h6.5v16h-4v-12.2l-3.1,12.2H26l-3.1-12.2v12.2h-4V183.7z"/>
		<path class="st1" d="M52,197.1h-5.6l-0.8,2.6h-5l6-16H52l6,16h-5.2L52,197.1z M51,193.6l-1.8-5.7l-1.7,5.7H51z"/>
		<path class="st1" d="M59.1,183.7h15v3.9h-5v12h-4.9v-12h-5V183.7z"/>
		<path class="st1" d="M78.6,183.7h9.2c1.5,0,2.7,0.4,3.5,1.1s1.2,1.7,1.2,2.8c0,0.9-0.3,1.8-0.9,2.4c-0.4,0.5-1,0.8-1.7,1.1
			c1.1,0.3,2,0.8,2.5,1.4c0.5,0.7,0.8,1.5,0.8,2.5c0,0.8-0.2,1.6-0.6,2.2c-0.4,0.7-0.9,1.2-1.6,1.6c-0.4,0.2-1,0.4-1.9,0.5
			c-1.1,0.1-1.9,0.2-2.2,0.2h-8.5V183.7z M83.6,190h2.1c0.8,0,1.3-0.1,1.6-0.4c0.3-0.3,0.5-0.6,0.5-1.2c0-0.5-0.2-0.8-0.5-1.1
			c-0.3-0.3-0.8-0.4-1.6-0.4h-2.2V190z M83.6,196.3h2.5c0.9,0,1.5-0.2,1.8-0.5c0.3-0.3,0.5-0.7,0.5-1.2c0-0.5-0.2-0.9-0.5-1.1
			s-1-0.4-1.8-0.4h-2.5V196.3z"/>
		<path class="st1" d="M108,183.7h4.9v9.5c0,0.9-0.1,1.8-0.4,2.7c-0.3,0.8-0.8,1.6-1.4,2.2c-0.6,0.6-1.3,1.1-2,1.3
			c-1,0.4-2.1,0.5-3.5,0.5c-0.8,0-1.6-0.1-2.5-0.2c-0.9-0.1-1.7-0.3-2.3-0.6c-0.6-0.3-1.2-0.8-1.7-1.4c-0.5-0.6-0.9-1.2-1.1-1.8
			c-0.3-1-0.5-1.9-0.5-2.7v-9.5h4.9v9.8c0,0.9,0.2,1.6,0.7,2c0.5,0.5,1.2,0.7,2,0.7c0.9,0,1.5-0.2,2-0.7c0.5-0.5,0.7-1.2,0.7-2.1
			V183.7z"/>
		<path class="st1" d="M117.8,191.7c0-2.6,0.7-4.6,2.2-6.1c1.5-1.5,3.5-2.2,6.1-2.2c2.7,0,4.7,0.7,6.2,2.1c1.4,1.4,2.2,3.4,2.2,6
			c0,1.9-0.3,3.4-0.9,4.6c-0.6,1.2-1.5,2.1-2.7,2.8c-1.2,0.7-2.7,1-4.4,1c-1.8,0-3.3-0.3-4.5-0.9c-1.2-0.6-2.1-1.5-2.9-2.7
			C118.2,195.2,117.8,193.6,117.8,191.7z M122.8,191.8c0,1.6,0.3,2.8,0.9,3.5c0.6,0.7,1.4,1.1,2.4,1.1c1.1,0,1.9-0.3,2.5-1
			c0.6-0.7,0.9-1.9,0.9-3.7c0-1.5-0.3-2.6-0.9-3.3c-0.6-0.7-1.4-1-2.5-1c-1,0-1.8,0.4-2.4,1.1S122.8,190.1,122.8,191.8z"/>
		<path class="st1" d="M137.6,183.7h15v3.9h-5v12h-4.9v-12h-5V183.7z"/>
		<path class="st1" d="M165.7,183.7h5.4l2.8,4.9l2.8-4.9h5.4l-5,7.7l5.4,8.2H177l-3.2-5.1l-3.2,5.1h-5.5l5.5-8.3L165.7,183.7z"/>
		<path class="st1" d="M186.6,183.7h5v16h-5V183.7z"/>
		<path class="st1" d="M196.9,183.7h14v3.2l-9,9.4h9.3v3.4H196v-3.3l8.9-9.3h-8V183.7z"/>
		<path class="st1" d="M215.6,183.7h6.5l2.5,9.7l2.5-9.7h6.5v16h-4v-12.2l-3.1,12.2h-3.7l-3.1-12.2v12.2h-4V183.7z"/>
		<path class="st1" d="M248.8,197.1h-5.6l-0.8,2.6h-5l6-16h5.4l6,16h-5.2L248.8,197.1z M247.8,193.6l-1.8-5.7l-1.7,5.7H247.8z"/>
		<path class="st1" d="M255.9,183.7h15v3.9h-5v12h-4.9v-12h-5V183.7z"/>
		<path class="st1" d="M275.6,183.7h5v16h-5V183.7z"/>
	</g>
	<g>
		<path class="st1" d="M62.8,148.7c0,1.7-0.4,3-1.2,3.9c-0.8,0.9-2,1.4-3.6,1.4c-1.6,0-2.7-0.5-3.6-1.4c-0.8-0.9-1.2-2.2-1.2-3.9
			c0-1.7,0.4-3,1.3-3.9c0.8-0.9,2-1.3,3.6-1.3c1.6,0,2.8,0.4,3.6,1.3C62.4,145.7,62.8,147,62.8,148.7z M55.4,148.7
			c0,1.1,0.2,2,0.6,2.6c0.4,0.6,1.1,0.9,1.9,0.9c1.7,0,2.6-1.1,2.6-3.4c0-2.3-0.9-3.4-2.6-3.4c-0.9,0-1.5,0.3-1.9,0.9
			C55.6,146.7,55.4,147.6,55.4,148.7z"/>
		<path class="st1" d="M66.4,143.6l0.1,0.2c-0.2,0.9-0.6,2-1.2,3.3h-1.5c0.3-1.4,0.6-2.5,0.7-3.5H66.4z"/>
		<path class="st1" d="M74.6,153.8H67v-1.4l4.9-7h-4.7v-1.8h7.3v1.4l-4.9,7h5V153.8z"/>
		<path class="st1" d="M76.2,143.6h3.2c1.4,0,2.5,0.2,3.1,0.6c0.7,0.4,1,1.1,1,2c0,0.6-0.1,1.1-0.4,1.5c-0.3,0.4-0.7,0.6-1.1,0.7
			v0.1c0.6,0.1,1.1,0.4,1.4,0.8c0.3,0.4,0.4,0.9,0.4,1.6c0,0.9-0.3,1.6-1,2.2c-0.7,0.5-1.6,0.8-2.7,0.8h-3.8V143.6z M78.3,147.7h1.2
			c0.6,0,1-0.1,1.3-0.3c0.3-0.2,0.4-0.5,0.4-0.9c0-0.4-0.1-0.7-0.4-0.8c-0.3-0.2-0.7-0.3-1.4-0.3h-1.1V147.7z M78.3,149.4v2.6h1.4
			c0.6,0,1-0.1,1.3-0.3c0.3-0.2,0.4-0.6,0.4-1c0-0.8-0.6-1.3-1.8-1.3H78.3z"/>
		<path class="st1" d="M91.6,153.8h-5.8v-10.2h5.8v1.8h-3.7v2.2h3.4v1.8h-3.4v2.6h3.7V153.8z"/>
		<path class="st1" d="M101.9,153.8h-2.4l-2.7-4.3l-0.9,0.7v3.6h-2.2v-10.2h2.2v4.6l0.8-1.2l2.7-3.5h2.4l-3.5,4.5L101.9,153.8z"/>
		<path class="st1" d="M103.2,153.8v-10.2h2.2v10.2H103.2z"/>
		<path class="st1" d="M113.9,151c0,0.9-0.3,1.6-1,2.2c-0.7,0.5-1.6,0.8-2.8,0.8c-1.1,0-2-0.2-2.9-0.6v-2c0.7,0.3,1.3,0.5,1.7,0.6
			c0.5,0.1,0.9,0.2,1.3,0.2c0.5,0,0.8-0.1,1.1-0.3c0.3-0.2,0.4-0.4,0.4-0.8c0-0.2-0.1-0.4-0.2-0.5c-0.1-0.2-0.3-0.3-0.5-0.4
			c-0.2-0.1-0.7-0.4-1.3-0.7c-0.6-0.3-1.1-0.6-1.4-0.8c-0.3-0.3-0.6-0.6-0.7-0.9c-0.2-0.4-0.3-0.8-0.3-1.2c0-0.9,0.3-1.6,0.9-2.1
			c0.6-0.5,1.4-0.8,2.5-0.8c0.5,0,1,0.1,1.5,0.2c0.5,0.1,1,0.3,1.5,0.5l-0.7,1.7c-0.5-0.2-1-0.4-1.3-0.5c-0.4-0.1-0.7-0.1-1-0.1
			c-0.4,0-0.7,0.1-0.9,0.3c-0.2,0.2-0.3,0.4-0.3,0.7c0,0.2,0,0.4,0.1,0.5c0.1,0.1,0.2,0.3,0.4,0.4c0.2,0.1,0.6,0.4,1.4,0.7
			c0.9,0.5,1.6,0.9,2,1.4C113.7,149.7,113.9,150.3,113.9,151z"/>
		<path class="st1" d="M119.6,153.8h-2.2v-8.4h-2.8v-1.8h7.7v1.8h-2.8V153.8z"/>
		<path class="st1" d="M133.1,148.7c0,1.7-0.4,3-1.2,3.9c-0.8,0.9-2,1.4-3.6,1.4s-2.7-0.5-3.6-1.4c-0.8-0.9-1.2-2.2-1.2-3.9
			c0-1.7,0.4-3,1.3-3.9c0.8-0.9,2-1.3,3.6-1.3c1.6,0,2.8,0.4,3.6,1.3C132.7,145.7,133.1,147,133.1,148.7z M125.7,148.7
			c0,1.1,0.2,2,0.6,2.6c0.4,0.6,1.1,0.9,1.9,0.9c1.7,0,2.6-1.1,2.6-3.4c0-2.3-0.9-3.4-2.6-3.4c-0.9,0-1.5,0.3-1.9,0.9
			C126,146.7,125.7,147.6,125.7,148.7z"/>
		<path class="st1" d="M144.3,153.8h-2.7l-4.4-7.7H137c0.1,1.4,0.1,2.3,0.1,2.9v4.8h-1.9v-10.2h2.7l4.4,7.6h0
			c-0.1-1.3-0.1-2.3-0.1-2.8v-4.8h1.9V153.8z"/>
		<path class="st1" d="M152.7,149.9v3.9h-2.2v-10.2h3c1.4,0,2.4,0.3,3.1,0.8c0.7,0.5,1,1.3,1,2.3c0,0.6-0.2,1.1-0.5,1.6
			c-0.3,0.5-0.8,0.8-1.4,1.1c1.5,2.3,2.5,3.8,3,4.4h-2.4l-2.4-3.9H152.7z M152.7,148.1h0.7c0.7,0,1.2-0.1,1.5-0.3
			c0.3-0.2,0.5-0.6,0.5-1.1c0-0.5-0.2-0.8-0.5-1c-0.3-0.2-0.8-0.3-1.5-0.3h-0.7V148.1z"/>
		<path class="st1" d="M165.7,153.8h-5.8v-10.2h5.8v1.8H162v2.2h3.4v1.8H162v2.6h3.7V153.8z"/>
		<path class="st1" d="M173.8,151c0,0.9-0.3,1.6-1,2.2c-0.7,0.5-1.6,0.8-2.8,0.8c-1.1,0-2-0.2-2.9-0.6v-2c0.7,0.3,1.3,0.5,1.7,0.6
			c0.5,0.1,0.9,0.2,1.3,0.2c0.5,0,0.8-0.1,1.1-0.3c0.3-0.2,0.4-0.4,0.4-0.8c0-0.2-0.1-0.4-0.2-0.5c-0.1-0.2-0.3-0.3-0.5-0.4
			c-0.2-0.1-0.7-0.4-1.3-0.7c-0.6-0.3-1.1-0.6-1.4-0.8c-0.3-0.3-0.6-0.6-0.7-0.9c-0.2-0.4-0.3-0.8-0.3-1.2c0-0.9,0.3-1.6,0.9-2.1
			c0.6-0.5,1.4-0.8,2.5-0.8c0.5,0,1,0.1,1.5,0.2c0.5,0.1,1,0.3,1.5,0.5l-0.7,1.7c-0.5-0.2-1-0.4-1.3-0.5c-0.4-0.1-0.7-0.1-1-0.1
			c-0.4,0-0.7,0.1-0.9,0.3c-0.2,0.2-0.3,0.4-0.3,0.7c0,0.2,0,0.4,0.1,0.5c0.1,0.1,0.2,0.3,0.4,0.4c0.2,0.1,0.6,0.4,1.4,0.7
			c0.9,0.5,1.6,0.9,2,1.4C173.7,149.7,173.8,150.3,173.8,151z"/>
		<path class="st1" d="M182.7,146.8c0,1.1-0.3,1.9-1,2.5c-0.7,0.6-1.7,0.9-2.9,0.9h-0.9v3.6h-2.2v-10.2h3.2c1.2,0,2.2,0.3,2.8,0.8
			C182.4,145,182.7,145.8,182.7,146.8z M177.8,148.4h0.7c0.7,0,1.2-0.1,1.5-0.4c0.3-0.3,0.5-0.6,0.5-1.1c0-0.5-0.1-0.9-0.4-1.1
			c-0.3-0.2-0.7-0.4-1.3-0.4h-1V148.4z"/>
		<path class="st1" d="M192.9,143.6v6.6c0,0.7-0.2,1.4-0.5,2c-0.3,0.6-0.8,1-1.5,1.3c-0.6,0.3-1.4,0.5-2.2,0.5c-1.3,0-2.3-0.3-3-1
			c-0.7-0.7-1.1-1.6-1.1-2.7v-6.5h2.1v6.2c0,0.8,0.2,1.4,0.5,1.7c0.3,0.4,0.8,0.5,1.6,0.5c0.7,0,1.2-0.2,1.5-0.6
			c0.3-0.4,0.5-0.9,0.5-1.7v-6.2H192.9z"/>
		<path class="st1" d="M195.4,143.6h3.2c1.4,0,2.5,0.2,3.1,0.6c0.7,0.4,1,1.1,1,2c0,0.6-0.1,1.1-0.4,1.5s-0.7,0.6-1.1,0.7v0.1
			c0.6,0.1,1.1,0.4,1.4,0.8c0.3,0.4,0.4,0.9,0.4,1.6c0,0.9-0.3,1.6-1,2.2c-0.7,0.5-1.6,0.8-2.7,0.8h-3.8V143.6z M197.5,147.7h1.2
			c0.6,0,1-0.1,1.3-0.3c0.3-0.2,0.4-0.5,0.4-0.9c0-0.4-0.1-0.7-0.4-0.8c-0.3-0.2-0.7-0.3-1.4-0.3h-1.1V147.7z M197.5,149.4v2.6h1.4
			c0.6,0,1-0.1,1.3-0.3c0.3-0.2,0.4-0.6,0.4-1c0-0.8-0.6-1.3-1.8-1.3H197.5z"/>
		<path class="st1" d="M204.9,153.8v-10.2h2.2v8.4h4.1v1.8H204.9z"/>
		<path class="st1" d="M212.9,153.8v-10.2h2.2v10.2H212.9z"/>
		<path class="st1" d="M225.8,153.8h-2.4l-2.7-4.3l-0.9,0.7v3.6h-2.2v-10.2h2.2v4.6l0.8-1.2l2.7-3.5h2.4l-3.5,4.5L225.8,153.8z"/>
		<path class="st1" d="M233.3,153.8l-0.7-2.4h-3.7l-0.7,2.4h-2.3l3.6-10.2h2.6l3.6,10.2H233.3z M232.1,149.6
			c-0.7-2.2-1.1-3.4-1.1-3.7c-0.1-0.3-0.1-0.5-0.2-0.7c-0.2,0.6-0.6,2.1-1.3,4.4H232.1z"/>
		<path class="st1" d="M242.9,151c0,0.9-0.3,1.6-1,2.2c-0.7,0.5-1.6,0.8-2.8,0.8c-1.1,0-2-0.2-2.9-0.6v-2c0.7,0.3,1.3,0.5,1.7,0.6
			c0.5,0.1,0.9,0.2,1.3,0.2c0.5,0,0.8-0.1,1.1-0.3c0.3-0.2,0.4-0.4,0.4-0.8c0-0.2-0.1-0.4-0.2-0.5c-0.1-0.2-0.3-0.3-0.5-0.4
			c-0.2-0.1-0.7-0.4-1.3-0.7c-0.6-0.3-1.1-0.6-1.4-0.8c-0.3-0.3-0.6-0.6-0.7-0.9c-0.2-0.4-0.3-0.8-0.3-1.2c0-0.9,0.3-1.6,0.9-2.1
			c0.6-0.5,1.4-0.8,2.5-0.8c0.5,0,1,0.1,1.5,0.2c0.5,0.1,1,0.3,1.5,0.5l-0.7,1.7c-0.5-0.2-1-0.4-1.3-0.5c-0.4-0.1-0.7-0.1-1-0.1
			c-0.4,0-0.7,0.1-0.9,0.3c-0.2,0.2-0.3,0.4-0.3,0.7c0,0.2,0,0.4,0.1,0.5c0.1,0.1,0.2,0.3,0.4,0.4c0.2,0.1,0.6,0.4,1.4,0.7
			c0.9,0.5,1.6,0.9,2,1.4C242.7,149.7,242.9,150.3,242.9,151z"/>
		<path class="st1" d="M244.7,153.8v-10.2h2.2v10.2H244.7z"/>
		<path class="st1" d="M5.5,165.1h4v5.3c-0.7,0.2-1.3,0.4-1.8,0.4C7.1,170.9,6.6,171,6,171c-1.5,0-2.7-0.5-3.5-1.4
			c-0.8-0.9-1.2-2.2-1.2-3.9c0-1.6,0.5-2.9,1.4-3.8c0.9-0.9,2.2-1.4,3.9-1.4c1,0,2,0.2,3,0.6l-0.7,1.7c-0.7-0.4-1.5-0.6-2.3-0.6
			c-0.9,0-1.7,0.3-2.2,0.9c-0.6,0.6-0.8,1.5-0.8,2.5c0,1.1,0.2,1.9,0.7,2.5c0.5,0.6,1.1,0.9,2,0.9c0.4,0,0.9,0,1.4-0.1v-2.1H5.5
			V165.1z"/>
		<path class="st1" d="M12,170.8v-10.2h2.2v10.2H12z"/>
		<path class="st1" d="M25.1,165.7c0,1.7-0.5,3-1.4,3.8c-1,0.9-2.3,1.3-4.1,1.3h-2.9v-10.2h3.2c1.7,0,2.9,0.4,3.9,1.3
			C24.7,162.9,25.1,164.1,25.1,165.7z M22.9,165.7c0-2.2-1-3.3-2.9-3.3h-1.1v6.6h0.9C21.8,169.1,22.9,168,22.9,165.7z"/>
		<path class="st1" d="M29.4,167v3.9h-2.2v-10.2h3c1.4,0,2.4,0.3,3.1,0.8c0.7,0.5,1,1.3,1,2.3c0,0.6-0.2,1.1-0.5,1.6
			c-0.3,0.5-0.8,0.8-1.4,1.1c1.5,2.3,2.5,3.8,3,4.4h-2.4l-2.4-3.9H29.4z M29.4,165.2h0.7c0.7,0,1.2-0.1,1.5-0.3
			c0.3-0.2,0.5-0.6,0.5-1.1c0-0.5-0.2-0.8-0.5-1c-0.3-0.2-0.8-0.3-1.5-0.3h-0.7V165.2z"/>
		<path class="st1" d="M45.8,165.8c0,1.7-0.4,3-1.2,3.9c-0.8,0.9-2,1.4-3.6,1.4s-2.7-0.5-3.6-1.4c-0.8-0.9-1.2-2.2-1.2-3.9
			c0-1.7,0.4-3,1.3-3.9c0.8-0.9,2-1.3,3.6-1.3c1.6,0,2.8,0.4,3.6,1.3C45.4,162.8,45.8,164.1,45.8,165.8z M38.4,165.8
			c0,1.1,0.2,2,0.6,2.6c0.4,0.6,1.1,0.9,1.9,0.9c1.7,0,2.6-1.1,2.6-3.4c0-2.3-0.9-3.4-2.6-3.4c-0.9,0-1.5,0.3-1.9,0.9
			C38.6,163.8,38.4,164.6,38.4,165.8z"/>
		<path class="st1" d="M52.2,170.8l-2.4-8h-0.1c0.1,1.6,0.1,2.7,0.1,3.2v4.7h-1.9v-10.2h2.9l2.4,7.8h0l2.5-7.8h2.9v10.2h-2V166
			c0-0.2,0-0.5,0-0.8c0-0.3,0-1.1,0.1-2.4h-0.1l-2.6,7.9H52.2z"/>
		<path class="st1" d="M67.2,170.8h-5.8v-10.2h5.8v1.8h-3.7v2.2h3.4v1.8h-3.4v2.6h3.7V170.8z"/>
		<path class="st1" d="M73.2,170.8h-2.2v-8.4h-2.8v-1.8H76v1.8h-2.8V170.8z"/>
		<path class="st1" d="M83.4,170.8h-5.8v-10.2h5.8v1.8h-3.7v2.2h3.4v1.8h-3.4v2.6h3.7V170.8z"/>
		<path class="st1" d="M94.7,165.8c0,1.7-0.4,3-1.2,3.9c-0.8,0.9-2,1.4-3.6,1.4c-1.6,0-2.7-0.5-3.6-1.4c-0.8-0.9-1.2-2.2-1.2-3.9
			c0-1.7,0.4-3,1.3-3.9c0.8-0.9,2-1.3,3.6-1.3c1.6,0,2.8,0.4,3.6,1.3C94.3,162.8,94.7,164.1,94.7,165.8z M87.3,165.8
			c0,1.1,0.2,2,0.6,2.6c0.4,0.6,1.1,0.9,1.9,0.9c1.7,0,2.6-1.1,2.6-3.4c0-2.3-0.9-3.4-2.6-3.4c-0.9,0-1.5,0.3-1.9,0.9
			C87.5,163.8,87.3,164.6,87.3,165.8z"/>
		<path class="st1" d="M99,167v3.9h-2.2v-10.2h3c1.4,0,2.4,0.3,3.1,0.8c0.7,0.5,1,1.3,1,2.3c0,0.6-0.2,1.1-0.5,1.6
			c-0.3,0.5-0.8,0.8-1.4,1.1c1.5,2.3,2.5,3.8,3,4.4h-2.4l-2.4-3.9H99z M99,165.2h0.7c0.7,0,1.2-0.1,1.5-0.3c0.3-0.2,0.5-0.6,0.5-1.1
			c0-0.5-0.2-0.8-0.5-1c-0.3-0.2-0.8-0.3-1.5-0.3H99V165.2z"/>
		<path class="st1" d="M115.4,165.8c0,1.7-0.4,3-1.2,3.9c-0.8,0.9-2,1.4-3.6,1.4c-1.6,0-2.7-0.5-3.6-1.4c-0.8-0.9-1.2-2.2-1.2-3.9
			c0-1.7,0.4-3,1.3-3.9c0.8-0.9,2-1.3,3.6-1.3c1.6,0,2.8,0.4,3.6,1.3C115,162.8,115.4,164.1,115.4,165.8z M108,165.8
			c0,1.1,0.2,2,0.6,2.6c0.4,0.6,1.1,0.9,1.9,0.9c1.7,0,2.6-1.1,2.6-3.4c0-2.3-0.9-3.4-2.6-3.4c-0.9,0-1.5,0.3-1.9,0.9
			C108.2,163.8,108,164.6,108,165.8z"/>
		<path class="st1" d="M117.5,170.8v-10.2h2.2v8.4h4.1v1.8H117.5z"/>
		<path class="st1" d="M134.8,165.8c0,1.7-0.4,3-1.2,3.9c-0.8,0.9-2,1.4-3.6,1.4s-2.7-0.5-3.6-1.4c-0.8-0.9-1.2-2.2-1.2-3.9
			c0-1.7,0.4-3,1.3-3.9c0.8-0.9,2-1.3,3.6-1.3c1.6,0,2.8,0.4,3.6,1.3C134.3,162.8,134.8,164.1,134.8,165.8z M127.3,165.8
			c0,1.1,0.2,2,0.6,2.6c0.4,0.6,1.1,0.9,1.9,0.9c1.7,0,2.6-1.1,2.6-3.4c0-2.3-0.9-3.4-2.6-3.4c-0.9,0-1.5,0.3-1.9,0.9
			C127.6,163.8,127.3,164.6,127.3,165.8z"/>
		<path class="st1" d="M140.7,165.1h4v5.3c-0.7,0.2-1.3,0.4-1.8,0.4c-0.6,0.1-1.2,0.1-1.8,0.1c-1.5,0-2.7-0.5-3.5-1.4
			c-0.8-0.9-1.2-2.2-1.2-3.9c0-1.6,0.5-2.9,1.4-3.8c0.9-0.9,2.2-1.4,3.9-1.4c1,0,2,0.2,3,0.6l-0.7,1.7c-0.7-0.4-1.5-0.6-2.3-0.6
			c-0.9,0-1.7,0.3-2.2,0.9c-0.6,0.6-0.8,1.5-0.8,2.5c0,1.1,0.2,1.9,0.7,2.5c0.5,0.6,1.1,0.9,2,0.9c0.4,0,0.9,0,1.4-0.1v-2.1h-1.9
			V165.1z"/>
		<path class="st1" d="M147.2,170.8v-10.2h2.2v10.2H147.2z"/>
		<path class="st1" d="M155,164.9l2.1-4.2h2.3l-3.4,6.2v4H154V167l-3.4-6.3h2.3L155,164.9z"/>
		<path class="st1" d="M167,170.8l-0.7-2.4h-3.7l-0.7,2.4h-2.3l3.6-10.2h2.6l3.6,10.2H167z M165.7,166.6c-0.7-2.2-1.1-3.4-1.1-3.7
			c-0.1-0.3-0.1-0.5-0.2-0.7c-0.2,0.6-0.6,2.1-1.3,4.4H165.7z"/>
		<path class="st1" d="M182.4,170.8H180l-2.4-3.8l-2.4,3.8H173l3.4-5.2l-3.2-4.9h2.4l2.2,3.7l2.1-3.7h2.3l-3.2,5L182.4,170.8z"/>
		<path class="st1" d="M183.7,170.8v-10.2h2.2v10.2H183.7z"/>
		<path class="st1" d="M195,170.8h-7.6v-1.4l4.9-7h-4.7v-1.8h7.3v1.4l-4.9,7h5V170.8z"/>
		<path class="st1" d="M201,170.8l-2.4-8h-0.1c0.1,1.6,0.1,2.7,0.1,3.2v4.7h-1.9v-10.2h2.9l2.4,7.8h0l2.5-7.8h2.9v10.2h-2V166
			c0-0.2,0-0.5,0-0.8c0-0.3,0-1.1,0.1-2.4h-0.1l-2.6,7.9H201z"/>
		<path class="st1" d="M216.3,170.8l-0.7-2.4h-3.7l-0.7,2.4h-2.3l3.6-10.2h2.6l3.6,10.2H216.3z M215,166.6c-0.7-2.2-1.1-3.4-1.1-3.7
			c-0.1-0.3-0.1-0.5-0.2-0.7c-0.2,0.6-0.6,2.1-1.3,4.4H215z"/>
		<path class="st1" d="M223.8,170.8h-2.2v-8.4h-2.8v-1.8h7.7v1.8h-2.8V170.8z"/>
		<path class="st1" d="M228.1,170.8v-10.2h2.2v10.2H228.1z"/>
		<path class="st1" d="M240.8,170.8l-2.4-8h-0.1c0.1,1.6,0.1,2.7,0.1,3.2v4.7h-1.9v-10.2h2.9l2.4,7.8h0l2.5-7.8h2.9v10.2h-2V166
			c0-0.2,0-0.5,0-0.8c0-0.3,0-1.1,0.1-2.4h-0.1l-2.6,7.9H240.8z"/>
		<path class="st1" d="M256.1,170.8l-0.7-2.4h-3.7l-0.7,2.4h-2.3l3.6-10.2h2.6l3.6,10.2H256.1z M254.9,166.6
			c-0.7-2.2-1.1-3.4-1.1-3.7c-0.1-0.3-0.1-0.5-0.2-0.7c-0.2,0.6-0.6,2.1-1.3,4.4H254.9z"/>
		<path class="st1" d="M261.9,167v3.9h-2.2v-10.2h3c1.4,0,2.4,0.3,3.1,0.8c0.7,0.5,1,1.3,1,2.3c0,0.6-0.2,1.1-0.5,1.6
			c-0.3,0.5-0.8,0.8-1.4,1.1c1.5,2.3,2.5,3.8,3,4.4h-2.4L263,167H261.9z M261.9,165.2h0.7c0.7,0,1.2-0.1,1.5-0.3
			c0.3-0.2,0.5-0.6,0.5-1.1c0-0.5-0.2-0.8-0.5-1c-0.3-0.2-0.8-0.3-1.5-0.3h-0.7V165.2z"/>
		<path class="st1" d="M277.3,170.8h-2.4l-2.7-4.3l-0.9,0.7v3.6h-2.2v-10.2h2.2v4.6l0.8-1.2l2.7-3.5h2.4l-3.5,4.5L277.3,170.8z"/>
		<path class="st1" d="M284.8,170.8l-0.7-2.4h-3.7l-0.7,2.4h-2.3l3.6-10.2h2.6l3.6,10.2H284.8z M283.5,166.6
			c-0.7-2.2-1.1-3.4-1.1-3.7c-0.1-0.3-0.1-0.5-0.2-0.7c-0.2,0.6-0.6,2.1-1.3,4.4H283.5z"/>
		<path class="st1" d="M295,170.8h-7.6v-1.4l4.9-7h-4.7v-1.8h7.3v1.4l-4.9,7h5V170.8z"/>
		<path class="st1" d="M296.6,170.8v-10.2h2.2v10.2H296.6z"/>
	</g>
</g>
</svg>
