<?xml version="1.0" encoding="utf-8"?>
<!-- Generator: Adobe Illustrator 26.3.1, SVG Export Plug-In . SVG Version: 6.00 Build 0)  -->
<svg version="1.1"
	 id="Layer_1" xmlns:cc="http://creativecommons.org/ns#" xmlns:rdf="http://www.w3.org/1999/02/22-rdf-syntax-ns#" xmlns:dc="http://purl.org/dc/elements/1.1/"
	 xmlns="http://www.w3.org/2000/svg" xmlns:xlink="http://www.w3.org/1999/xlink" x="0px" y="0px" viewBox="0 0 800 800"
	 style="enable-background:new 0 0 800 800;" xml:space="preserve">
<style type="text/css">
	.st0{fill:#00BBD6;}
	.st1{fill:#92D7E7;}
</style>
<g transform="translate(0 -1028.4)">
	<g>
		<path class="st0" d="M400,1028.4c-35.5,137.7-93.6,271.4-179.2,385.4c-83.4,92.7-67.3,251.6,30.2,328.1
			c41.3,34.7,95.4,52.9,149,53.1c53.6-0.3,107.6-18.4,149-53.1c97.5-76.5,113.6-235.5,30.2-328.1
			C493.6,1299.8,435.5,1166.1,400,1028.4z"/>
		<path class="st1" d="M400.7,1058.4c-19.7,96.7-51.9,190-99.3,270c-46.3,63.3-37.3,173.3,16.7,226.7c22.9,23.3,52.9,36.7,82.6,36.7
			c29.7,0,59.7-13.3,82.6-36.7c54-53.3,63-163.3,16.7-226.7C452.6,1248.4,420.4,1155.1,400.7,1058.4z"/>
	</g>
</g>
</svg>
