<?xml version="1.0" encoding="utf-8"?>
<!-- Generator: Adobe Illustrator 23.0.3, SVG Export Plug-In . SVG Version: 6.00 Build 0)  -->
<svg version="1.1" id="Layer_1" xmlns="http://www.w3.org/2000/svg" xmlns:xlink="http://www.w3.org/1999/xlink" x="0px" y="0px"
	 viewBox="0 0 30 30" style="enable-background:new 0 0 30 30;" xml:space="preserve">
<style type="text/css">
	.st0{opacity:0.972;fill-rule:evenodd;clip-rule:evenodd;fill:#EA6D49;enable-background:new    ;}
</style>
<g>
	<path class="st0" d="M12,2.7c1.2,0,2.5,0,3.7,0c6.4,1.6,9.9,5.6,10.5,12.3c-0.1,0.6-0.2,1.2-0.2,1.8c1.2-0.1,2.3,0,3.4,0.2
		c0.6,0.6,0.6,1.2,0,1.9c-3.8,0.2-7.6,0.3-11.4,0.3c-0.5,0.4-0.6,0.8-0.2,1.3c0.5,0.4,1,0.5,1.6,0.5c0.4,0.4,0.6,0.9,0.4,1.5
		c-0.2,0.3-0.4,0.5-0.7,0.5c-0.6,0.1-1.2,0.1-1.9,0.2c-0.6,0.6-0.6,1.2,0.2,1.7c2.5,0.1,5,0.1,7.5,0.2c0.6,0.6,0.6,1.2,0.2,1.9
		c-3.2,0.2-6.4,0.3-9.6,0.2c-3.2,0-6.4-0.1-9.6-0.2c-0.4-0.7-0.4-1.3,0.2-1.9c1.7-0.1,3.3-0.1,5-0.2c1-0.5,1-1.1,0.2-1.7
		c-2.5,0-4.9-0.1-7.3-0.3c-0.5-0.5-0.6-1-0.2-1.6c0.6-0.2,1.2-0.4,1.8-0.6c0.4-0.5,0.4-1-0.2-1.5c-1.6,0-3.2-0.1-4.8-0.3
		c-0.8-1.4-0.4-2.1,1.2-2.1C1.3,9.2,4.7,4.6,12,2.7z"/>
</g>
</svg>
