<svg xmlns="http://www.w3.org/2000/svg" width="60" height="60" viewBox="0 0 60 60">
  <defs>
    <style>
      .cls-1 {
        fill: #959595;
        fill-rule: evenodd;
      }
    </style>
  </defs>
  <path class="cls-1" d="M982.148,951.314h-1.42v-44.1a0.847,0.847,0,0,0-.852-0.843h-15.9a0.848,0.848,0,0,0-.852.843v3.651h-1.7v-3.651a0.848,0.848,0,0,0-.852-0.843h-3.692v-2.528a0.852,0.852,0,0,0-1.7,0v2.528h-3.692a0.847,0.847,0,0,0-.851.843v3.651h-2.556a0.848,0.848,0,0,0-.852.843v7.022h-7.1a0.848,0.848,0,0,0-.851.844v31.741h-1.42a0.843,0.843,0,1,0,0,1.685h44.3A0.843,0.843,0,1,0,982.148,951.314Zm-29.815-43.259h7.383v2.809h-7.383v-2.809Zm-2.839,43.259h-0.568v-1.4a0.852,0.852,0,0,0-1.7,0v1.4h-0.568v-2.809h2.84v2.809Zm5.679-21.63v21.63H951.2v-3.652a0.847,0.847,0,0,0-.851-0.843H945.8a0.847,0.847,0,0,0-.851.843v3.652h-3.976v-30.9h14.2v9.269h0Zm0.852-10.955h-7.1V912.55h14.2v16.292h-6.247v-2.809h2.556a0.843,0.843,0,1,0,0-1.685h-2.556v-2.81h2.556a0.843,0.843,0,1,0,0-1.685h-2.556v-0.28A0.848,0.848,0,0,0,956.025,918.729Zm15.049,32.585h-14.2V930.527h14.2v20.787Zm7.951,0h-6.247V928.561a0.852,0.852,0,0,0-1.7,0v0.281h-1.7v-0.281a0.852,0.852,0,0,0-1.7,0v0.281h-2.84V908.055h14.2v43.259h0Zm-18.457-1.685a0.848,0.848,0,0,0,.852-0.843v-15.73a0.852,0.852,0,0,0-1.7,0v15.73A0.848,0.848,0,0,0,960.568,949.629Zm3.407,0a0.848,0.848,0,0,0,.852-0.843v-15.73a0.852,0.852,0,0,0-1.7,0v15.73A0.848,0.848,0,0,0,963.975,949.629Zm3.407,0a0.848,0.848,0,0,0,.852-0.843v-15.73a0.852,0.852,0,0,0-1.7,0v15.73A0.847,0.847,0,0,0,967.382,949.629Zm1.136-35.956a0.847,0.847,0,0,0,.852-0.842v-1.124a0.852,0.852,0,0,0-1.7,0v1.124A0.847,0.847,0,0,0,968.518,913.673Zm3.408,0a0.847,0.847,0,0,0,.852-0.842v-1.124a0.852,0.852,0,0,0-1.7,0v1.124A0.847,0.847,0,0,0,971.926,913.673Zm3.407,0a0.847,0.847,0,0,0,.852-0.842v-1.124a0.852,0.852,0,0,0-1.7,0v1.124A0.847,0.847,0,0,0,975.333,913.673Zm-6.815,5.618a0.847,0.847,0,0,0,.852-0.842v-1.124a0.852,0.852,0,0,0-1.7,0v1.124A0.847,0.847,0,0,0,968.518,919.291Zm3.408,0a0.847,0.847,0,0,0,.852-0.842v-1.124a0.852,0.852,0,0,0-1.7,0v1.124A0.847,0.847,0,0,0,971.926,919.291Zm3.407,0a0.847,0.847,0,0,0,.852-0.842v-1.124a0.852,0.852,0,0,0-1.7,0v1.124A0.847,0.847,0,0,0,975.333,919.291Zm-6.815,5.619a0.848,0.848,0,0,0,.852-0.844v-1.123a0.852,0.852,0,0,0-1.7,0v1.123A0.848,0.848,0,0,0,968.518,924.91Zm3.408,0a0.848,0.848,0,0,0,.852-0.844v-1.123a0.852,0.852,0,0,0-1.7,0v1.123A0.848,0.848,0,0,0,971.926,924.91Zm3.407,0a0.848,0.848,0,0,0,.852-0.844v-1.123a0.852,0.852,0,0,0-1.7,0v1.123A0.848,0.848,0,0,0,975.333,924.91Zm-30.666,2.247a0.847,0.847,0,0,0,.851-0.843V925.19a0.852,0.852,0,0,0-1.7,0v1.124A0.848,0.848,0,0,0,944.667,927.157Zm3.407,0a0.848,0.848,0,0,0,.852-0.843V925.19a0.852,0.852,0,0,0-1.7,0v1.124A0.848,0.848,0,0,0,948.074,927.157Zm3.407,0a0.848,0.848,0,0,0,.852-0.843V925.19a0.852,0.852,0,0,0-1.7,0v1.124A0.847,0.847,0,0,0,951.481,927.157Zm-6.814,5.617a0.847,0.847,0,0,0,.851-0.842v-1.124a0.852,0.852,0,0,0-1.7,0v1.124A0.847,0.847,0,0,0,944.667,932.774Zm3.407,0a0.847,0.847,0,0,0,.852-0.842v-1.124a0.852,0.852,0,0,0-1.7,0v1.124A0.847,0.847,0,0,0,948.074,932.774Zm3.407,0a0.847,0.847,0,0,0,.852-0.842v-1.124a0.852,0.852,0,0,0-1.7,0v1.124A0.847,0.847,0,0,0,951.481,932.774Zm-6.814,5.618a0.847,0.847,0,0,0,.851-0.842v-1.124a0.852,0.852,0,0,0-1.7,0v1.124A0.847,0.847,0,0,0,944.667,938.392Zm3.407,0a0.847,0.847,0,0,0,.852-0.842v-1.124a0.852,0.852,0,0,0-1.7,0v1.124A0.847,0.847,0,0,0,948.074,938.392Zm3.407,0a0.847,0.847,0,0,0,.852-0.842v-1.124a0.852,0.852,0,0,0-1.7,0v1.124A0.847,0.847,0,0,0,951.481,938.392Zm-6.814,5.619a0.847,0.847,0,0,0,.851-0.843v-1.124a0.852,0.852,0,0,0-1.7,0v1.124A0.848,0.848,0,0,0,944.667,944.011Zm3.407,0a0.848,0.848,0,0,0,.852-0.843v-1.124a0.852,0.852,0,0,0-1.7,0v1.124A0.848,0.848,0,0,0,948.074,944.011Zm3.407,0a0.848,0.848,0,0,0,.852-0.843v-1.124a0.852,0.852,0,0,0-1.7,0v1.124A0.847,0.847,0,0,0,951.481,944.011Zm23.852-13.484a0.847,0.847,0,0,0,.852-0.842v-1.124a0.852,0.852,0,0,0-1.7,0v1.124A0.847,0.847,0,0,0,975.333,930.527Zm0,5.618a0.847,0.847,0,0,0,.852-0.843v-1.123a0.852,0.852,0,0,0-1.7,0V935.3A0.848,0.848,0,0,0,975.333,936.145Zm0,5.618a0.847,0.847,0,0,0,.852-0.842V939.8a0.852,0.852,0,0,0-1.7,0v1.124A0.847,0.847,0,0,0,975.333,941.763Zm0,5.618a0.847,0.847,0,0,0,.852-0.842v-1.124a0.852,0.852,0,0,0-1.7,0v1.124A0.847,0.847,0,0,0,975.333,947.381ZM960.284,916.2a0.847,0.847,0,0,0-.852-0.842h-6.815a0.843,0.843,0,1,0,0,1.685h6.815A0.848,0.848,0,0,0,960.284,916.2Z" transform="translate(-930 -898)"/>
</svg>
