<svg xmlns="http://www.w3.org/2000/svg" width="60" height="60" viewBox="0 0 60 60">
  <defs>
    <style>
      .cls-1 {
        fill: #959595;
        fill-rule: evenodd;
      }
    </style>
  </defs>
  <path class="cls-1" d="M1208.32,903h-33.64a1.681,1.681,0,0,0-1.68,1.667v46.666a1.681,1.681,0,0,0,1.68,1.667h33.64a1.681,1.681,0,0,0,1.68-1.667V904.666A1.681,1.681,0,0,0,1208.32,903Zm0,48.333h-33.64V904.666h33.64v46.666h0Zm-21.28-37.749,1.1-1.083v3.833a0.84,0.84,0,0,0,1.68,0v-5.5l1.68-1.666,1.68,1.666v5.5a0.84,0.84,0,0,0,1.68,0V912.5l1.1,1.083a0.812,0.812,0,0,0,1.17,0,0.8,0.8,0,0,0,0-1.167l-2.37-2.357a0.758,0.758,0,0,0-.29-0.286l-2.38-2.357a0.82,0.82,0,0,0-1.18,0l-2.38,2.357a0.763,0.763,0,0,0-.29.285l-2.37,2.358a0.8,0.8,0,0,0,0,1.167A0.81,0.81,0,0,0,1187.04,913.583Zm-8.15,11.083h11.77a0.834,0.834,0,1,0,0-1.667h-11.77A0.834,0.834,0,1,0,1178.89,924.666Zm0,3.333h8.41a0.833,0.833,0,1,0,0-1.666h-8.41A0.833,0.833,0,1,0,1178.89,928Zm0,10h8.41a0.834,0.834,0,1,0,0-1.667h-8.41A0.834,0.834,0,1,0,1178.89,938Zm16.23-13.916a0.794,0.794,0,0,0,0,1.166l2.52,2.5a0.76,0.76,0,0,0,.59.25,1.28,1.28,0,0,0,.67-0.25l4.2-5.833a0.8,0.8,0,0,0-.16-1.167,0.82,0.82,0,0,0-1.18.167l-3.62,5-1.85-1.833A0.808,0.808,0,0,0,1195.12,924.083Zm-16.23,10.583h11.77a0.834,0.834,0,1,0,0-1.667h-11.77A0.834,0.834,0,1,0,1178.89,934.666Zm24.05-3.917a0.819,0.819,0,0,0-1.18.167l-3.62,5-1.85-1.834a0.812,0.812,0,0,0-1.17,0,0.8,0.8,0,0,0,0,1.167l2.52,2.5a0.76,0.76,0,0,0,.59.25,1.272,1.272,0,0,0,.67-0.25l4.2-5.833A0.8,0.8,0,0,0,1202.94,930.749Zm-24.05,13.917h11.77a0.834,0.834,0,1,0,0-1.667h-11.77A0.834,0.834,0,1,0,1178.89,944.666Zm0,3.333h8.41a0.834,0.834,0,1,0,0-1.667h-8.41A0.834,0.834,0,1,0,1178.89,948Zm24.05-7.25a0.819,0.819,0,0,0-1.18.167l-3.62,5-1.85-1.833a0.808,0.808,0,0,0-1.17,0,0.794,0.794,0,0,0,0,1.166l2.52,2.5a0.76,0.76,0,0,0,.59.25,1.28,1.28,0,0,0,.67-0.25l4.2-5.833A0.8,0.8,0,0,0,1202.94,940.749Z" transform="translate(-1161.5 -898)"/>
</svg>
