<?xml version="1.0" encoding="utf-8"?>
<!-- Generator: Adobe Illustrator 23.0.3, SVG Export Plug-In . SVG Version: 6.00 Build 0)  -->
<svg version="1.1" id="Слой_1" xmlns="http://www.w3.org/2000/svg" xmlns:xlink="http://www.w3.org/1999/xlink" x="0px" y="0px"
	 viewBox="0 0 300 60" style="enable-background:new 0 0 300 60;" xml:space="preserve">
<style type="text/css">
	.st0{fill:#56595B;}
	.st1{fill:#35A6E5;}
	.st2{fill:#6B6966;}
	.st3{fill:#148ADB;}
</style>
<g>
	<path class="st0" d="M16.5,31.1c0-0.8,0.3-1.4,0.8-2s1.2-0.8,1.9-0.8H32L23,19.2c-0.6-0.5-0.8-1.1-0.8-1.9c0-0.8,0.3-1.4,0.8-1.9
		c0.6-0.6,1.2-0.8,1.9-0.8c0.8,0,1.4,0.3,1.9,0.8l9,9V11.7c0-0.8,0.3-1.4,0.8-2c0.6-0.6,1.2-0.8,2-0.8c0.8,0,1.4,0.3,1.9,0.8
		c0.5,0.6,0.8,1.2,0.8,2v12.8l9.1-9.1c0.6-0.6,1.2-0.8,1.9-0.8s1.4,0.3,1.9,0.8c0.5,0.6,0.7,1.2,0.7,1.9c0,0.8-0.2,1.4-0.7,1.9
		l-9.1,9.1h12.8c0.7,0,1.4,0.3,1.9,0.8s0.8,1.2,0.8,2c0,0.7-0.3,1.4-0.8,1.9c-0.5,0.5-1.2,0.8-1.9,0.8H45.3c-0.8,1.7-2.1,3-3.9,3.8
		v12.9c0,0.8-0.3,1.4-0.8,1.9s-1.2,0.8-1.9,0.8c-0.8,0-1.4-0.3-2-0.8c-0.6-0.5-0.8-1.2-0.8-1.9V37.6l-9,9c-0.6,0.6-1.2,0.8-1.9,0.8
		c-0.8,0-1.4-0.3-1.9-0.8c-0.6-0.6-0.8-1.2-0.8-1.9s0.3-1.4,0.8-1.9l9.1-9.1H19.3c-0.8,0-1.4-0.3-1.9-0.8
		C16.7,32.5,16.5,31.8,16.5,31.1z"/>
	<path class="st1" d="M48.4,46.8c0.7,0.7,1.6,1.2,2.5,1.5c0.9,0.3,1.8,0.4,2.7,0.2s1.6-0.5,2.2-1.1c0.6-0.6,1-1.4,1.1-2.3
		c0.1-0.9,0-1.8-0.3-2.7c-0.3-0.9-0.9-1.7-1.6-2.5c-0.5-0.5-1.2-0.9-2-1.3c-0.9-0.4-1.8-0.7-2.6-1c-0.7-0.2-1.6-0.3-2.5-0.4
		c-0.9-0.1-2.4-0.3-2.8-0.3l0.2,1.8c0.1,0.9,0.3,1.8,0.5,2.8c0.3,1,0.6,2,1.1,2.9C47.4,45.6,47.9,46.3,48.4,46.8z"/>
</g>
<ellipse class="st2" cx="69.3" cy="31" rx="0.9" ry="22.9"/>
<g>
	<path class="st2" d="M91,14.9h5v16.8h-3.3V20.3c0-0.3,0-0.8,0-1.4c0-0.6,0-1,0-1.4l-3.2,14.1h-3.4l-3.2-14.1c0,0.3,0,0.8,0,1.4
		c0,0.6,0,1,0,1.4v11.3h-3.3V14.9H85l3,13.2L91,14.9z"/>
	<path class="st2" d="M111.7,17.9h-8.9v3.6h8.1v2.9h-8.1v4.3h9.3v3H99.4V14.9h12.3V17.9z"/>
	<path class="st2" d="M127,14.9v3h-5v13.8h-3.5V17.9h-5v-3H127z"/>
	<path class="st2" d="M141.4,17.9h-8.9v3.6h8.1v2.9h-8.1v4.3h9.3v3h-12.7V14.9h12.3V17.9z"/>
	<path class="st2" d="M157.5,30.2c-1.3,1.3-3.1,2-5.5,2c-2.4,0-4.2-0.7-5.5-2c-1.7-1.6-2.5-3.9-2.5-6.9c0-3.1,0.8-5.4,2.5-6.9
		c1.3-1.3,3.1-2,5.5-2c2.4,0,4.2,0.7,5.5,2c1.7,1.5,2.5,3.8,2.5,6.9C160,26.2,159.2,28.6,157.5,30.2z M155.3,27.6
		c0.8-1,1.2-2.5,1.2-4.4c0-1.9-0.4-3.3-1.2-4.4c-0.8-1-1.9-1.5-3.3-1.5c-1.4,0-2.5,0.5-3.3,1.5c-0.8,1-1.2,2.5-1.2,4.4
		s0.4,3.3,1.2,4.4c0.8,1,1.9,1.5,3.3,1.5C153.4,29.1,154.5,28.6,155.3,27.6z"/>
	<path class="st2" d="M173.4,15.3c0.6,0.3,1.1,0.7,1.6,1.2c0.4,0.4,0.6,0.9,0.8,1.4c0.2,0.5,0.3,1.1,0.3,1.8c0,0.8-0.2,1.6-0.6,2.3
		c-0.4,0.8-1.1,1.3-2,1.6c0.8,0.3,1.3,0.8,1.6,1.3c0.3,0.6,0.5,1.4,0.5,2.6v1.1c0,0.8,0,1.3,0.1,1.6c0.1,0.4,0.3,0.8,0.6,1v0.4h-3.9
		c-0.1-0.4-0.2-0.7-0.2-0.9c-0.1-0.5-0.1-1-0.1-1.4l0-1.6c0-1.1-0.2-1.8-0.6-2.1c-0.4-0.4-1-0.5-2-0.5h-3.4v6.6h-3.4V14.9h8
		C171.9,14.9,172.8,15.1,173.4,15.3z M166.2,17.8v4.5h3.8c0.7,0,1.3-0.1,1.7-0.3c0.7-0.3,1-0.9,1-1.9c0-1-0.3-1.7-1-2
		c-0.4-0.2-0.9-0.3-1.6-0.3H166.2z"/>
	<path class="st2" d="M192.4,30.2c-1.3,1.3-3.1,2-5.5,2c-2.4,0-4.2-0.7-5.5-2c-1.7-1.6-2.5-3.9-2.5-6.9c0-3.1,0.8-5.4,2.5-6.9
		c1.3-1.3,3.1-2,5.5-2c2.4,0,4.2,0.7,5.5,2c1.7,1.5,2.5,3.8,2.5,6.9C194.9,26.2,194.1,28.6,192.4,30.2z M190.2,27.6
		c0.8-1,1.2-2.5,1.2-4.4c0-1.9-0.4-3.3-1.2-4.4c-0.8-1-1.9-1.5-3.3-1.5c-1.4,0-2.5,0.5-3.3,1.5c-0.8,1-1.2,2.5-1.2,4.4
		s0.4,3.3,1.2,4.4c0.8,1,1.9,1.5,3.3,1.5C188.3,29.1,189.4,28.6,190.2,27.6z"/>
	<path class="st2" d="M197.6,14.9h3.5v13.7h8.4v3h-11.9V14.9z"/>
	<path class="st2" d="M224.7,30.2c-1.3,1.3-3.1,2-5.5,2c-2.4,0-4.2-0.7-5.5-2c-1.7-1.6-2.5-3.9-2.5-6.9c0-3.1,0.8-5.4,2.5-6.9
		c1.3-1.3,3.1-2,5.5-2c2.4,0,4.2,0.7,5.5,2c1.7,1.5,2.5,3.8,2.5,6.9C227.3,26.2,226.4,28.6,224.7,30.2z M222.5,27.6
		c0.8-1,1.2-2.5,1.2-4.4c0-1.9-0.4-3.3-1.2-4.4c-0.8-1-1.9-1.5-3.3-1.5c-1.4,0-2.5,0.5-3.3,1.5c-0.8,1-1.2,2.5-1.2,4.4
		s0.4,3.3,1.2,4.4c0.8,1,1.9,1.5,3.3,1.5C220.6,29.1,221.7,28.6,222.5,27.6z"/>
	<path class="st2" d="M241.2,20.1c-0.3-1.1-0.9-1.9-1.9-2.4c-0.6-0.2-1.2-0.4-1.9-0.4c-1.3,0-2.5,0.5-3.3,1.5
		c-0.9,1-1.3,2.5-1.3,4.6c0,2.1,0.5,3.5,1.4,4.4c0.9,0.9,2,1.3,3.2,1.3c1.2,0,2.1-0.3,2.9-1c0.8-0.7,1.2-1.6,1.4-2.6h-3.9v-2.8h7v9
		h-2.3l-0.4-2.1c-0.7,0.8-1.3,1.4-1.8,1.7c-0.9,0.6-2.1,0.8-3.4,0.8c-2.2,0-4-0.8-5.5-2.3c-1.5-1.5-2.2-3.7-2.2-6.3
		c0-2.7,0.7-4.9,2.2-6.5c1.5-1.6,3.5-2.5,5.9-2.5c2.1,0,3.8,0.5,5.1,1.6c1.3,1.1,2,2.4,2.2,4H241.2z"/>
	<path class="st2" d="M251.2,31.6h-3.5V14.9h3.5V31.6z"/>
	<path class="st2" d="M256.1,16.6c1.3-1.4,3.1-2.1,5.2-2.1c2.8,0,4.8,0.9,6.1,2.8c0.7,1,1.1,2.1,1.1,3.1H265
		c-0.2-0.8-0.5-1.4-0.9-1.8c-0.6-0.7-1.5-1.1-2.8-1.1c-1.2,0-2.2,0.5-3,1.5c-0.7,1-1.1,2.5-1.1,4.4c0,1.9,0.4,3.3,1.1,4.2
		c0.8,0.9,1.7,1.4,2.9,1.4c1.2,0,2.1-0.4,2.7-1.2c0.3-0.4,0.6-1.1,0.9-1.9h3.5c-0.3,1.8-1.1,3.3-2.3,4.5c-1.2,1.1-2.8,1.7-4.7,1.7
		c-2.4,0-4.3-0.8-5.6-2.3c-1.4-1.6-2-3.7-2-6.4C253.8,20.5,254.6,18.2,256.1,16.6z"/>
	<path class="st2" d="M276.1,14.9h4l5.9,16.8h-3.8l-1.1-3.4h-6.2l-1.1,3.4h-3.7L276.1,14.9z M275.9,25.3h4.3l-2.1-6.6L275.9,25.3z"
		/>
	<path class="st2" d="M288.1,14.9h3.5v13.7h8.4v3h-11.9V14.9z"/>
</g>
<g>
	<path class="st3" d="M203.7,49.7L203.7,49.7c-0.4,0.7-0.9,1.2-1.4,1.6c-0.6,0.4-1.2,0.5-2.1,0.5c-0.7,0-1.3-0.1-1.8-0.4
		c-0.5-0.3-0.9-0.6-1.2-1c-0.3-0.4-0.5-0.9-0.7-1.5c-0.2-0.6-0.2-1.2-0.2-1.8c0-0.7,0.1-1.3,0.2-1.9c0.2-0.6,0.4-1.1,0.7-1.5
		c0.3-0.4,0.8-0.8,1.3-1c0.5-0.2,1.1-0.4,1.8-0.4c0.4,0,0.7,0.1,1.1,0.1c0.4,0.1,0.7,0.2,1,0.4s0.6,0.4,0.8,0.7
		c0.2,0.3,0.4,0.6,0.5,0.9h0v-5.5h0.7v12.5h-0.7V49.7z M200.3,51.3c0.6,0,1.1-0.1,1.5-0.4c0.4-0.2,0.8-0.5,1-0.9
		c0.3-0.4,0.5-0.8,0.6-1.3c0.1-0.5,0.2-1,0.2-1.5c0-0.5-0.1-1-0.2-1.5c-0.1-0.5-0.3-0.9-0.6-1.3c-0.3-0.4-0.6-0.7-1-0.9
		c-0.4-0.2-0.9-0.4-1.5-0.4c-0.6,0-1.1,0.1-1.5,0.3c-0.4,0.2-0.8,0.5-1,0.9c-0.3,0.4-0.5,0.8-0.6,1.3c-0.1,0.5-0.2,1-0.2,1.6
		c0,0.5,0.1,1,0.2,1.5c0.1,0.5,0.3,0.9,0.6,1.3c0.3,0.4,0.6,0.7,1,0.9S199.7,51.3,200.3,51.3z"/>
	<path class="st3" d="M212.4,49.9L212.4,49.9c-0.1,0.3-0.3,0.5-0.5,0.8c-0.2,0.2-0.4,0.5-0.7,0.6c-0.3,0.2-0.6,0.3-1,0.4
		c-0.4,0.1-0.8,0.2-1.2,0.2c-1,0-1.7-0.2-2.2-0.6c-0.5-0.4-0.8-1.1-0.8-1.9c0-0.5,0.1-1,0.3-1.3c0.2-0.3,0.5-0.6,0.8-0.8
		c0.3-0.2,0.7-0.3,1.1-0.4c0.4-0.1,0.8-0.1,1.1-0.2l1-0.1c0.5,0,0.9-0.1,1.1-0.2c0.3-0.1,0.5-0.2,0.6-0.3c0.1-0.1,0.2-0.3,0.3-0.5
		c0-0.2,0.1-0.5,0.1-0.8c0-0.2,0-0.5-0.1-0.7c-0.1-0.2-0.2-0.4-0.4-0.6s-0.5-0.3-0.8-0.4c-0.3-0.1-0.7-0.1-1.2-0.1
		c-0.8,0-1.5,0.2-2,0.6c-0.5,0.4-0.8,1-0.8,1.8h-0.7c0-1,0.4-1.7,1-2.2c0.6-0.5,1.4-0.7,2.5-0.7c1.1,0,1.9,0.2,2.4,0.6
		c0.5,0.4,0.7,1,0.7,1.7V50c0,0.1,0,0.3,0,0.4s0,0.2,0.1,0.4c0,0.1,0.1,0.2,0.2,0.3s0.2,0.1,0.4,0.1c0.1,0,0.3,0,0.5-0.1v0.6
		c-0.2,0-0.4,0.1-0.5,0.1c-0.3,0-0.5,0-0.6-0.1c-0.2-0.1-0.3-0.2-0.4-0.3c-0.1-0.1-0.1-0.3-0.2-0.4c0-0.2,0-0.3,0-0.5V49.9z
		 M212.4,46.5c-0.2,0.2-0.4,0.3-0.7,0.4c-0.3,0.1-0.7,0.1-1.1,0.2l-1.1,0.1c-0.3,0-0.7,0.1-1,0.1c-0.3,0.1-0.6,0.2-0.9,0.3
		c-0.3,0.2-0.5,0.4-0.6,0.6c-0.2,0.3-0.2,0.6-0.2,1c0,0.7,0.2,1.2,0.6,1.5c0.4,0.3,1,0.5,1.7,0.5c0.8,0,1.4-0.1,1.8-0.4
		c0.4-0.3,0.8-0.6,1-0.9c0.2-0.4,0.4-0.7,0.4-1c0.1-0.3,0.1-0.6,0.1-0.7V46.5z"/>
	<path class="st3" d="M218.5,43.2h-2v6.3c0,0.4,0,0.6,0.1,0.9c0.1,0.2,0.2,0.4,0.4,0.5c0.2,0.1,0.4,0.2,0.6,0.2c0.2,0,0.5,0,0.8,0
		v0.6c-0.3,0-0.7,0-1,0c-0.3,0-0.6-0.1-0.9-0.3c-0.2-0.1-0.4-0.4-0.6-0.7c-0.1-0.3-0.2-0.7-0.2-1.2v-6.3h-1.7v-0.6h1.7v-2.8h0.7v2.8
		h2V43.2z"/>
	<path class="st3" d="M225.7,49.9L225.7,49.9c-0.1,0.3-0.3,0.5-0.5,0.8c-0.2,0.2-0.4,0.5-0.7,0.6c-0.3,0.2-0.6,0.3-1,0.4
		c-0.4,0.1-0.8,0.2-1.2,0.2c-1,0-1.7-0.2-2.2-0.6c-0.5-0.4-0.8-1.1-0.8-1.9c0-0.5,0.1-1,0.3-1.3c0.2-0.3,0.5-0.6,0.8-0.8
		c0.3-0.2,0.7-0.3,1.1-0.4c0.4-0.1,0.8-0.1,1.1-0.2l1-0.1c0.5,0,0.9-0.1,1.1-0.2c0.3-0.1,0.5-0.2,0.6-0.3c0.1-0.1,0.2-0.3,0.3-0.5
		c0-0.2,0.1-0.5,0.1-0.8c0-0.2,0-0.5-0.1-0.7c-0.1-0.2-0.2-0.4-0.4-0.6c-0.2-0.2-0.5-0.3-0.8-0.4c-0.3-0.1-0.7-0.1-1.2-0.1
		c-0.8,0-1.5,0.2-2,0.6c-0.5,0.4-0.8,1-0.8,1.8h-0.7c0-1,0.4-1.7,1-2.2c0.6-0.5,1.4-0.7,2.5-0.7c1.1,0,1.9,0.2,2.4,0.6
		c0.5,0.4,0.7,1,0.7,1.7V50c0,0.1,0,0.3,0,0.4s0,0.2,0.1,0.4c0,0.1,0.1,0.2,0.2,0.3c0.1,0.1,0.2,0.1,0.4,0.1c0.1,0,0.3,0,0.5-0.1
		v0.6c-0.2,0-0.4,0.1-0.5,0.1c-0.3,0-0.5,0-0.6-0.1c-0.2-0.1-0.3-0.2-0.4-0.3c-0.1-0.1-0.1-0.3-0.2-0.4c0-0.2,0-0.3,0-0.5V49.9z
		 M225.7,46.5c-0.2,0.2-0.4,0.3-0.7,0.4c-0.3,0.1-0.7,0.1-1.1,0.2l-1.1,0.1c-0.3,0-0.7,0.1-1,0.1c-0.3,0.1-0.6,0.2-0.9,0.3
		c-0.3,0.2-0.5,0.4-0.6,0.6c-0.2,0.3-0.2,0.6-0.2,1c0,0.7,0.2,1.2,0.6,1.5c0.4,0.3,1,0.5,1.7,0.5c0.8,0,1.4-0.1,1.8-0.4
		c0.4-0.3,0.8-0.6,1-0.9c0.2-0.4,0.4-0.7,0.4-1c0.1-0.3,0.1-0.6,0.1-0.7V46.5z"/>
	<path class="st3" d="M240.2,45.4c0-0.4-0.1-0.7-0.3-1.1c-0.2-0.3-0.4-0.6-0.7-0.8c-0.3-0.2-0.6-0.4-0.9-0.5
		c-0.4-0.1-0.7-0.2-1.1-0.2c-0.6,0-1.1,0.1-1.5,0.3c-0.4,0.2-0.8,0.5-1.1,0.9c-0.3,0.4-0.5,0.8-0.7,1.3c-0.2,0.5-0.2,1-0.2,1.5
		c0,0.6,0.1,1.2,0.2,1.7c0.1,0.5,0.4,1,0.6,1.3c0.3,0.4,0.7,0.7,1.1,0.9s0.9,0.3,1.5,0.3c0.4,0,0.8-0.1,1.2-0.2
		c0.4-0.1,0.7-0.3,0.9-0.6c0.3-0.2,0.5-0.5,0.7-0.9c0.2-0.3,0.3-0.7,0.4-1.1h0.7c-0.1,0.5-0.2,1-0.4,1.4c-0.2,0.4-0.5,0.8-0.8,1.1
		c-0.3,0.3-0.7,0.5-1.2,0.7c-0.4,0.2-0.9,0.2-1.4,0.2c-0.7,0-1.4-0.1-1.9-0.4c-0.5-0.3-0.9-0.6-1.3-1.1c-0.3-0.4-0.6-1-0.7-1.5
		c-0.2-0.6-0.2-1.2-0.2-1.8c0-0.6,0.1-1.2,0.3-1.8s0.4-1.1,0.8-1.5c0.4-0.4,0.8-0.8,1.3-1c0.5-0.2,1.1-0.4,1.8-0.4
		c0.5,0,0.9,0.1,1.4,0.2c0.4,0.1,0.8,0.3,1.1,0.6c0.3,0.2,0.6,0.6,0.8,0.9c0.2,0.4,0.3,0.8,0.4,1.3H240.2z"/>
	<path class="st3" d="M242.1,47.2c0-0.6,0.1-1.2,0.3-1.8c0.2-0.6,0.4-1.1,0.8-1.5c0.4-0.4,0.8-0.8,1.3-1c0.5-0.3,1.1-0.4,1.8-0.4
		c0.7,0,1.3,0.1,1.8,0.4c0.5,0.3,0.9,0.6,1.3,1c0.4,0.4,0.6,0.9,0.8,1.5c0.2,0.6,0.3,1.2,0.3,1.8c0,0.6-0.1,1.3-0.3,1.8
		c-0.2,0.6-0.4,1.1-0.8,1.5c-0.4,0.4-0.8,0.8-1.3,1c-0.5,0.3-1.1,0.4-1.8,0.4c-0.7,0-1.3-0.1-1.8-0.4c-0.5-0.3-0.9-0.6-1.3-1
		c-0.4-0.4-0.6-0.9-0.8-1.5C242.1,48.4,242.1,47.8,242.1,47.2z M242.7,47.2c0,0.5,0.1,1.1,0.2,1.6c0.2,0.5,0.4,0.9,0.7,1.3
		c0.3,0.4,0.7,0.7,1.1,0.9c0.4,0.2,0.9,0.3,1.5,0.3c0.6,0,1.1-0.1,1.5-0.3c0.4-0.2,0.8-0.5,1.1-0.9c0.3-0.4,0.5-0.8,0.7-1.3
		s0.2-1,0.2-1.6s-0.1-1.1-0.2-1.6s-0.4-0.9-0.7-1.3c-0.3-0.4-0.7-0.7-1.1-0.9c-0.4-0.2-0.9-0.3-1.5-0.3c-0.6,0-1.1,0.1-1.5,0.3
		c-0.4,0.2-0.8,0.5-1.1,0.9c-0.3,0.4-0.5,0.8-0.7,1.3C242.8,46.1,242.7,46.6,242.7,47.2z"/>
	<path class="st3" d="M252.7,39.1v12.5H252V39.1H252.7z"/>
	<path class="st3" d="M255.7,39.1v12.5H255V39.1H255.7z"/>
	<path class="st3" d="M258,47.2v0.1c0,0.5,0.1,1,0.2,1.5c0.1,0.5,0.3,0.9,0.6,1.3c0.3,0.4,0.6,0.6,1,0.9c0.4,0.2,0.9,0.3,1.4,0.3
		c0.9,0,1.6-0.2,2.1-0.7c0.5-0.5,0.9-1.1,1.1-2h0.7c-0.2,1.1-0.6,1.9-1.3,2.4c-0.7,0.6-1.5,0.8-2.6,0.8c-0.7,0-1.2-0.1-1.7-0.4
		c-0.5-0.2-0.9-0.6-1.2-1c-0.3-0.4-0.6-0.9-0.7-1.5c-0.2-0.6-0.2-1.2-0.2-1.8c0-0.6,0.1-1.2,0.3-1.8c0.2-0.6,0.4-1.1,0.8-1.5
		c0.3-0.4,0.8-0.8,1.3-1.1c0.5-0.3,1.1-0.4,1.8-0.4c0.6,0,1.2,0.1,1.7,0.4c0.5,0.2,0.9,0.6,1.2,1c0.3,0.4,0.6,0.9,0.7,1.4
		c0.2,0.5,0.3,1.1,0.3,1.7c0,0.1,0,0.1,0,0.2c0,0.1,0,0.1,0,0.2H258z M264.7,46.7c0-0.5-0.1-1-0.2-1.4c-0.1-0.4-0.3-0.8-0.6-1.2
		c-0.3-0.3-0.6-0.6-1-0.8c-0.4-0.2-0.8-0.3-1.3-0.3c-0.5,0-1,0.1-1.4,0.3c-0.4,0.2-0.8,0.5-1,0.8c-0.3,0.3-0.5,0.7-0.7,1.2
		s-0.2,0.9-0.3,1.4H264.7z"/>
	<path class="st3" d="M273.7,45.4c0-0.4-0.1-0.7-0.3-1.1c-0.2-0.3-0.4-0.6-0.7-0.8c-0.3-0.2-0.6-0.4-0.9-0.5
		c-0.4-0.1-0.7-0.2-1.1-0.2c-0.6,0-1.1,0.1-1.5,0.3c-0.4,0.2-0.8,0.5-1.1,0.9c-0.3,0.4-0.5,0.8-0.7,1.3c-0.2,0.5-0.2,1-0.2,1.5
		c0,0.6,0.1,1.2,0.2,1.7c0.1,0.5,0.4,1,0.6,1.3c0.3,0.4,0.7,0.7,1.1,0.9c0.4,0.2,0.9,0.3,1.5,0.3c0.4,0,0.8-0.1,1.2-0.2
		c0.4-0.1,0.7-0.3,0.9-0.6c0.3-0.2,0.5-0.5,0.7-0.9c0.2-0.3,0.3-0.7,0.4-1.1h0.7c-0.1,0.5-0.2,1-0.4,1.4c-0.2,0.4-0.5,0.8-0.8,1.1
		c-0.3,0.3-0.7,0.5-1.2,0.7c-0.4,0.2-0.9,0.2-1.4,0.2c-0.7,0-1.4-0.1-1.9-0.4c-0.5-0.3-0.9-0.6-1.3-1.1c-0.3-0.4-0.6-1-0.7-1.5
		c-0.2-0.6-0.2-1.2-0.2-1.8c0-0.6,0.1-1.2,0.3-1.8s0.4-1.1,0.8-1.5c0.4-0.4,0.8-0.8,1.3-1c0.5-0.2,1.1-0.4,1.8-0.4
		c0.5,0,0.9,0.1,1.4,0.2c0.4,0.1,0.8,0.3,1.1,0.6c0.3,0.2,0.6,0.6,0.8,0.9c0.2,0.4,0.3,0.8,0.4,1.3H273.7z"/>
	<path class="st3" d="M279.3,43.2h-2v6.3c0,0.4,0,0.6,0.1,0.9c0.1,0.2,0.2,0.4,0.4,0.5c0.2,0.1,0.4,0.2,0.6,0.2c0.2,0,0.5,0,0.8,0
		v0.6c-0.3,0-0.7,0-1,0c-0.3,0-0.6-0.1-0.9-0.3c-0.2-0.1-0.4-0.4-0.6-0.7c-0.1-0.3-0.2-0.7-0.2-1.2v-6.3H275v-0.6h1.7v-2.8h0.7v2.8
		h2V43.2z"/>
	<path class="st3" d="M280.7,40.9v-1.8h0.7v1.8H280.7z M280.7,51.7v-9h0.7v9H280.7z"/>
	<path class="st3" d="M283,47.2c0-0.6,0.1-1.2,0.3-1.8c0.2-0.6,0.4-1.1,0.8-1.5c0.4-0.4,0.8-0.8,1.3-1c0.5-0.3,1.1-0.4,1.8-0.4
		c0.7,0,1.3,0.1,1.8,0.4c0.5,0.3,0.9,0.6,1.3,1c0.4,0.4,0.6,0.9,0.8,1.5c0.2,0.6,0.3,1.2,0.3,1.8c0,0.6-0.1,1.3-0.3,1.8
		c-0.2,0.6-0.4,1.1-0.8,1.5c-0.4,0.4-0.8,0.8-1.3,1c-0.5,0.3-1.1,0.4-1.8,0.4c-0.7,0-1.3-0.1-1.8-0.4c-0.5-0.3-0.9-0.6-1.3-1
		s-0.6-0.9-0.8-1.5C283.1,48.4,283,47.8,283,47.2z M283.7,47.2c0,0.5,0.1,1.1,0.2,1.6c0.2,0.5,0.4,0.9,0.7,1.3
		c0.3,0.4,0.7,0.7,1.1,0.9c0.4,0.2,0.9,0.3,1.5,0.3s1.1-0.1,1.5-0.3c0.4-0.2,0.8-0.5,1.1-0.9c0.3-0.4,0.5-0.8,0.7-1.3s0.2-1,0.2-1.6
		s-0.1-1.1-0.2-1.6s-0.4-0.9-0.7-1.3c-0.3-0.4-0.7-0.7-1.1-0.9c-0.4-0.2-0.9-0.3-1.5-0.3s-1.1,0.1-1.5,0.3c-0.4,0.2-0.8,0.5-1.1,0.9
		c-0.3,0.4-0.5,0.8-0.7,1.3C283.8,46.1,283.7,46.6,283.7,47.2z"/>
	<path class="st3" d="M292.9,42.6h0.7v1.9h0c0.1-0.3,0.3-0.6,0.5-0.9c0.2-0.3,0.5-0.5,0.8-0.7c0.3-0.2,0.6-0.3,0.9-0.4
		c0.3-0.1,0.7-0.1,1-0.1c0.5,0,1,0.1,1.3,0.2c0.4,0.1,0.7,0.3,0.9,0.5c0.2,0.2,0.4,0.4,0.6,0.7c0.1,0.3,0.2,0.5,0.3,0.8
		c0.1,0.3,0.1,0.5,0.1,0.8c0,0.3,0,0.5,0,0.7v5.6h-0.7V46c0-0.2,0-0.5-0.1-0.8c0-0.3-0.1-0.7-0.3-1c-0.2-0.3-0.4-0.6-0.8-0.8
		c-0.3-0.2-0.8-0.3-1.4-0.3c-0.5,0-1,0.1-1.4,0.3c-0.4,0.2-0.7,0.4-1,0.8c-0.3,0.3-0.5,0.7-0.6,1.2c-0.1,0.5-0.2,1-0.2,1.5v4.9h-0.7
		V42.6z"/>
</g>
</svg>
