<?xml version="1.0" encoding="utf-8"?>
<!-- Generator: Adobe Illustrator 23.0.3, SVG Export Plug-In . SVG Version: 6.00 Build 0)  -->
<svg version="1.1" id="Слой_1" xmlns="http://www.w3.org/2000/svg" xmlns:xlink="http://www.w3.org/1999/xlink" x="0px" y="0px"
	 viewBox="0 0 55 53" style="enable-background:new 0 0 55 53;" xml:space="preserve">
<style type="text/css">
	.st0{fill:none;}
	.st1{fill:#00A9DD;}
	.st2{fill:url(#SVGID_1_);}
	.st3{fill:url(#SVGID_2_);}
	.st4{fill:url(#SVGID_3_);}
</style>
<g>
	<rect y="-2" class="st0" width="55" height="55"/>
	<rect y="-2" class="st0" width="55" height="55"/>
	<path class="st1" d="M43.7,7.7c0-0.1,0.1-0.2,0.1-0.2c1,2.5,2.1,5,3.1,7.6c0.2,0.5,0.4,1,0.4,1.6c0,0.9-0.3,1.7-0.8,2.4
		c-0.7,0.8-1.7,1.3-2.7,1.2c-0.9,0-1.8-0.3-2.4-0.9c-1-0.9-1.4-2.5-0.9-3.9C41.5,12.9,42.6,10.3,43.7,7.7L43.7,7.7z"/>
	
		<linearGradient id="SVGID_1_" gradientUnits="userSpaceOnUse" x1="-119.1136" y1="-629.8461" x2="-108.2995" y2="-629.8461" gradientTransform="matrix(3.0914 0 0 3.0914 368.2659 1978.4265)">
		<stop  offset="0" style="stop-color:#D61C22"/>
		<stop  offset="0.533" style="stop-color:#E25224"/>
		<stop  offset="1" style="stop-color:#E67D28"/>
	</linearGradient>
	<path class="st2" d="M33.4,25.8c-0.2-0.7-0.5-1.3-1-1.8c-0.5-0.6-1.2-0.9-2-1.1c-1.2-0.2-2.4,0.2-3.3,1c-0.3,0.2-0.5,0.6-0.7,0.9
		c-0.2,0.3-0.3,0.6-0.4,1c-0.2,0.4-0.4,0.9-0.5,1.4l0,0c-0.2,0.5-0.4,1.1-0.7,1.6c0,0.1-0.1,0.2-0.1,0.3c-0.2,0.3-0.3,0.6-0.4,0.9
		c0,0.1-0.1,0.1-0.1,0.1c-0.2-0.5-0.4-1-0.7-1.5l0,0c-0.6-1.5-1.2-2.9-1.8-4.4c-0.1-0.2-0.1-0.3-0.2-0.5l0,0c-0.2-0.5-0.4-1-0.6-1.5
		c-0.2-0.4-0.3-0.8-0.6-1.2c-0.4-0.6-0.9-1-1.6-1.2c-0.3-0.1-0.6-0.2-1-0.2l0,0c-1.2-0.1-2.4,0.3-3.2,1.2c-0.4,0.4-0.6,1-0.8,1.5
		c-1.1,2.7-2.2,5.3-3.3,7.9c-0.2-0.3-0.2-0.6-0.4-0.9C9.5,28,9,26.6,8.4,25.3l0,0l0-0.1c-0.5-1.2-1-2.4-1.5-3.6
		c-0.4-0.9-1.2-1.6-2.1-2c-0.9-0.3-1.9-0.3-2.8,0.2c-0.7,0.4-1.3,1-1.6,1.7c-0.4,0.9-0.4,2-0.1,2.9c1.5,3.5,2.9,7.1,4.4,10.6
		c0.6,1.4,1.1,2.7,1.7,4.1c0.2,0.6,0.5,1.2,0.7,1.8c0.4,0.9,1.1,1.6,2.1,1.9l0,0c0.5,0.1,0.9,0.2,1.4,0.2c1,0,2-0.5,2.7-1.3
		c0.4-0.4,0.5-1,0.8-1.5c1.1-2.6,2.2-5.3,3.3-7.9c0.2,0.4,0.3,0.8,0.5,1.1c0.7,1.6,1.3,3.3,2,4.9c0.3,0.6,0.5,1.3,0.8,1.9
		c0.2,0.6,0.5,1.2,0.9,1.7c0.6,0.6,1.4,1,2.2,1.1c1.3,0.2,2.6-0.4,3.4-1.4c0.2-0.3,0.4-0.7,0.5-1c1.6-3.9,3.2-7.8,4.9-11.7
		c0.3-0.7,0.6-1.5,0.9-2.2C33.5,26.4,33.5,26.1,33.4,25.8L33.4,25.8z"/>
	
		<linearGradient id="SVGID_2_" gradientUnits="userSpaceOnUse" x1="-104.2113" y1="-633.3137" x2="-102.8147" y2="-627.2645" gradientTransform="matrix(3.0914 0 0 3.0914 368.2659 1978.4265)">
		<stop  offset="0" style="stop-color:#0E55A9"/>
		<stop  offset="0.648" style="stop-color:#00A6DC"/>
	</linearGradient>
	<path class="st3" d="M55,24.5c0-0.7,0-1.3,0-2c-0.2-1.4-1.3-2.6-2.6-2.9c-0.9-0.2-1.8-0.1-2.6,0.3c-1,0.5-1.7,1.5-1.9,2.6h0
		c-0.1,0.7,0,1.3,0,2c0,1.3,0,2.6,0,3.9c0,0.9,0,1.7,0,2.6c0,0.6,0,1.2,0,1.8c-0.1,1-0.6,1.9-1.4,2.5c-0.1,0-0.2,0.1-0.3,0.2
		c-0.9,0.6-2.1,0.7-3,0.3c-1.4-0.5-2.4-1.9-2.4-3.4c0,1.2,0.3,2.3,0.8,3.4c0.4,0.7,0.8,1.3,1.4,1.8c0.1,0,0.1,0.1,0.2,0.1
		c0.6,0.5,1.2,0.9,1.9,1.3c0.7,0.3,1.4,0.5,2.2,0.6c0.1,0,0.2,0,0.4,0c0.3,0,0.5,0,0.8,0c0.4,0,0.9-0.1,1.3-0.2
		c0.5-0.1,1-0.3,1.5-0.5c0.6-0.3,1.2-0.7,1.7-1.2l0,0c0.1-0.1,0.3-0.3,0.4-0.4c0.6-0.6,1.1-1.4,1.4-2.2c0.2-0.5,0.4-1.1,0.4-1.7
		C55,33.3,55,33,55,32.8c0-0.6,0-1.2,0-1.8c0-1,0-1.9,0-2.9C55,26.9,55,25.7,55,24.5z"/>
	
		<linearGradient id="SVGID_3_" gradientUnits="userSpaceOnUse" x1="-110.5765" y1="-629.8383" x2="-101.3643" y2="-629.8383" gradientTransform="matrix(3.0914 0 0 3.0914 368.2659 1978.4265)">
		<stop  offset="0" style="stop-color:#FFBA13"/>
		<stop  offset="0.228" style="stop-color:#FCBA14"/>
		<stop  offset="0.404" style="stop-color:#F2BB17"/>
		<stop  offset="0.563" style="stop-color:#E2BD1B"/>
		<stop  offset="0.711" style="stop-color:#CBBF22"/>
		<stop  offset="0.852" style="stop-color:#ADC22A"/>
		<stop  offset="0.986" style="stop-color:#88C635"/>
		<stop  offset="1" style="stop-color:#84C636"/>
	</linearGradient>
	<path class="st4" d="M54.5,35.2c-0.3,0.8-0.8,1.5-1.4,2.2c-0.1,0.1-0.3,0.3-0.4,0.4l0,0c-0.5,0.5-1.1,0.9-1.7,1.2
		c-0.5,0.2-1,0.4-1.5,0.5c-0.4,0.1-0.8,0.2-1.3,0.2c-0.3,0-0.5,0-0.8,0c-0.1,0-0.2,0-0.4,0c-0.7-0.1-1.5-0.3-2.2-0.6
		c-0.7-0.3-1.4-0.7-1.9-1.3c-0.1,0-0.1-0.1-0.2-0.1c-0.5-0.5-1-1.2-1.4-1.8c-0.5-1-0.8-2.2-0.8-3.4c0-1.7,0-3.5,0-5.2
		c0-0.8,0-1.7-0.3-2.5c-0.3-0.9-0.7-1.8-1.3-2.5c-0.2-0.4-0.6-0.7-0.9-0.9c-1-0.9-2.3-1.5-3.7-1.7c-1.2-0.1-2.5,0-3.6,0.4
		c-1.8,0.7-3.4,2.2-4.1,4c-0.1,0.3-0.3,0.6-0.4,0.9c0.2-0.3,0.4-0.6,0.7-0.9c0.9-0.8,2.1-1.2,3.3-1c0.7,0.2,1.5,0.5,2,1.1
		c0.5,0.5,0.8,1.1,1,1.8c0.1,0.3,0.1,0.6,0.1,0.9c0,0.1,0,0.1,0,0.2c0,1.5,0,3.1,0,4.6c0,0.7,0,1.4,0.1,2.1c0.3,2.5,1.5,4.8,3.3,6.5
		c0.7,0.6,1.4,1.2,2.2,1.6v0c0.8,0.4,1.6,0.8,2.4,1c0.5,0.1,0.9,0.2,1.4,0.3c0.7,0.1,1.4,0.1,2.1,0.1c0.8,0,1.5-0.2,2.3-0.4l0,0
		l0.1,0c0.8-0.2,1.6-0.6,2.4-1l0,0c0.5-0.3,1-0.7,1.5-1l0,0c0.3-0.2,0.6-0.5,0.9-0.8c0.9-0.9,1.6-2,2.1-3.2c0.4-1,0.8-2.1,0.8-3.2
		C54.8,34.1,54.7,34.7,54.5,35.2z"/>
</g>
</svg>
