<?xml version="1.0" encoding="utf-8"?>
<!-- Generator: Adobe Illustrator 23.0.3, SVG Export Plug-In . SVG Version: 6.00 Build 0)  -->
<svg version="1.1" id="Слой_1" xmlns="http://www.w3.org/2000/svg" xmlns:xlink="http://www.w3.org/1999/xlink" x="0px" y="0px"
	 viewBox="0 0 122 32" style="enable-background:new 0 0 122 32;" xml:space="preserve">
<style type="text/css">
	.st0{opacity:0.16;}
	.st1{fill:#7F7E7C;}
	.st2{fill:#52AC62;}
	.st3{fill:#FAFAFA;}
</style>
<title>majestic</title>
<desc>Created with Sketch.</desc>
<title  class="active-path" style="">041 - Home Insurance Documents</title>
<desc  class="active-path">Created with Sketch.</desc>
<g>
	<g class="st0">
		<path class="st1" d="M2.2,1.5h3.3v4.3L9,1.5h4.4L9.5,5.7l4.1,7h-4L7.3,8.1L5.6,10v2.8H2.2V1.5z"/>
		<path class="st1" d="M21.4,10.9h-3.8l-0.5,1.9h-3.4l4.1-11.3h3.6l4.1,11.3H22L21.4,10.9z M20.7,8.5l-1.2-4.1l-1.2,4.1H20.7z"/>
		<path class="st1" d="M26.5,1.5h4.9c1,0,1.8,0.1,2.4,0.4s1.1,0.7,1.5,1.2s0.7,1.1,0.9,1.8s0.3,1.4,0.3,2.2c0,1.2-0.1,2.1-0.4,2.8
			c-0.3,0.7-0.6,1.2-1.1,1.7c-0.5,0.4-1,0.7-1.5,0.9c-0.7,0.2-1.4,0.3-2,0.3h-4.9V1.5H26.5z M29.9,4v6.2h0.8c0.7,0,1.2-0.1,1.5-0.2
			c0.3-0.2,0.5-0.4,0.7-0.8c0.2-0.4,0.3-1.1,0.3-2c0-1.2-0.2-2-0.6-2.5c-0.4-0.4-1-0.7-1.9-0.7C30.7,4,29.9,4,29.9,4z"/>
		<path class="st1" d="M44.2,10.9h-3.8l-0.5,1.9h-3.4l4.1-11.3h3.6l4.1,11.3h-3.5L44.2,10.9z M43.5,8.5l-1.2-4.1l-1.2,4.1H43.5z"/>
		<path class="st1" d="M48.7,9l3.2-0.2c0.1,0.5,0.2,1,0.4,1.2c0.3,0.5,0.8,0.7,1.5,0.7c0.5,0,0.8-0.1,1.1-0.4
			c0.3-0.2,0.4-0.5,0.4-0.8s-0.1-0.6-0.4-0.8c-0.2-0.2-0.8-0.4-1.7-0.7c-1.5-0.3-2.5-0.8-3.1-1.4s-0.9-1.3-0.9-2.2
			c0-0.6,0.2-1.1,0.5-1.6C49.9,2.4,50.4,2,51,1.7s1.5-0.4,2.7-0.4c1.4,0,2.4,0.3,3.2,0.8c0.7,0.5,1.2,1.4,1.3,2.6L55,4.8
			c-0.1-0.5-0.3-0.9-0.5-1.1c-0.3-0.2-0.6-0.3-1.1-0.3c-0.4,0-0.7,0.1-0.9,0.3s-0.3,0.4-0.3,0.6s0.1,0.3,0.2,0.5
			c0.2,0.1,0.5,0.3,1.1,0.4c1.5,0.3,2.5,0.7,3.1,1S57.7,7,58,7.5s0.4,1.1,0.4,1.7c0,0.7-0.2,1.4-0.6,2c-0.4,0.6-0.9,1.1-1.6,1.4
			c-0.7,0.3-1.6,0.5-2.6,0.5c-1.8,0-3.1-0.4-3.8-1.1C49.2,11.1,48.8,10.2,48.7,9z"/>
		<path class="st1" d="M59.4,1.5h10.1v2.8h-3.4v8.5h-3.3V4.3h-3.4C59.4,4.3,59.4,1.5,59.4,1.5z"/>
		<path class="st1" d="M71.1,12.8V1.5h5.6c1,0,1.8,0.1,2.4,0.3c0.5,0.2,1,0.5,1.3,1s0.5,1.1,0.5,1.8c0,0.6-0.1,1.2-0.4,1.6
			S79.9,7,79.4,7.3c-0.3,0.2-0.7,0.3-1.2,0.4c0.4,0.1,0.7,0.3,0.9,0.4c0.1,0.1,0.3,0.3,0.5,0.6C79.8,9.1,80,9.3,80,9.5l1.6,3.3h-3.8
			L76,9.3c-0.2-0.4-0.4-0.7-0.6-0.9s-0.5-0.3-0.8-0.3h-0.3v4.6L71.1,12.8L71.1,12.8z M74.4,6.1h1.4c0.2,0,0.4-0.1,0.9-0.2
			c0.2,0,0.4-0.2,0.5-0.4c0.1-0.2,0.2-0.4,0.2-0.7c0-0.4-0.1-0.6-0.3-0.8c-0.2-0.2-0.6-0.3-1.2-0.3h-1.5V6.1z"/>
		<path class="st1" d="M1.5,20.4h3.7l1.9,3.5L9,20.4h3.6l-3.4,5.5l3.7,5.8H9.1L7,28.1l-2.1,3.6H1.1l3.7-5.9L1.5,20.4z"/>
		<path class="st1" d="M14.1,20.4h3.3v11.3h-3.3C14.1,31.7,14.1,20.4,14.1,20.4z"/>
		<path class="st1" d="M19.5,20.4h9.4v2.3l-6.1,6.6h6.3v2.4H18.9v-2.3l6-6.5h-5.4V20.4z"/>
		<path class="st1" d="M30.6,20.4H35l1.7,6.9l1.7-6.9h4.4v11.3H40v-8.6l-2.1,8.6h-2.5l-2.1-8.6v8.6h-2.7
			C30.6,31.7,30.6,20.4,30.6,20.4z"/>
		<path class="st1" d="M95.8,20.2v11.5h-3v-7.5c-0.5,0.4-1,0.7-1.4,0.9c-0.5,0.2-1,0.5-1.7,0.7v-2.6c1-0.3,1.8-0.8,2.4-1.2
			c0.6-0.5,1-1.1,1.3-1.8H95.8z"/>
		<path class="st1" d="M51.5,29.8h-3.8l-0.5,1.9h-3.4l4.1-11.3h3.6l4.1,11.3H52L51.5,29.8z M50.8,27.4l-1.2-4.1l-1.2,4.1H50.8z"/>
		<path class="st1" d="M54.8,20.4h10.1v2.8h-3.4v8.5h-3.3v-8.5h-3.4V20.4z"/>
		<path class="st1" d="M66.6,20.4h3.3v11.3h-3.3V20.4z"/>
		<path class="st1" d="M83.6,20.2v11.5h-3v-7.5c-0.5,0.4-1,0.7-1.4,0.9c-0.5,0.2-1,0.5-1.7,0.7v-2.6c1-0.3,1.8-0.8,2.4-1.2
			c0.6-0.5,1-1.1,1.3-1.8H83.6z"/>
		<path class="st1" d="M87.2,28.6h3.2v3.1h-3.2V28.6z"/>
	</g>
	<g>
		<path class="st1" d="M1.1,0.3h3.3v4.3l3.5-4.3h4.4L8.4,4.6l4.1,7H8.4L6.1,6.9L4.4,8.8v2.8H1.1V0.3z"/>
		<path class="st1" d="M20.2,9.7h-3.8l-0.5,1.9h-3.4l4.1-11.3h3.6l4.1,11.3h-3.5L20.2,9.7z M19.6,7.3l-1.2-4.1l-1.2,4.1H19.6z"/>
		<path class="st1" d="M25.4,0.3h4.9c1,0,1.8,0.1,2.4,0.4c0.6,0.3,1.1,0.7,1.5,1.2C34.6,2.4,34.9,3,35,3.7c0.2,0.7,0.3,1.4,0.3,2.2
			c0,1.2-0.1,2.1-0.4,2.8c-0.3,0.7-0.6,1.2-1.1,1.7c-0.5,0.4-1,0.7-1.5,0.9c-0.7,0.2-1.4,0.3-2,0.3h-4.9V0.3z M28.7,2.9V9h0.8
			c0.7,0,1.2-0.1,1.5-0.2c0.3-0.2,0.5-0.4,0.7-0.8C31.9,7.5,32,6.9,32,6c0-1.2-0.2-2-0.6-2.5c-0.4-0.4-1-0.7-1.9-0.7h-0.8V2.9z"/>
		<path class="st1" d="M43,9.7h-3.8l-0.5,1.9h-3.4l4.1-11.3H43l4.1,11.3h-3.5L43,9.7z M42.3,7.3l-1.2-4.1L40,7.3H42.3z"/>
		<path class="st1" d="M47.5,7.9l3.2-0.2c0.1,0.5,0.2,1,0.4,1.2c0.3,0.5,0.8,0.7,1.5,0.7c0.5,0,0.8-0.1,1.1-0.4
			C54,9,54.1,8.7,54.1,8.4S54,7.8,53.7,7.6C53.5,7.4,52.9,7.2,52,7c-1.5-0.3-2.5-0.8-3.1-1.4S48,4.3,48,3.4c0-0.6,0.2-1.1,0.5-1.6
			s0.8-0.9,1.4-1.2s1.5-0.4,2.7-0.4C54,0.2,55,0.5,55.8,1c0.7,0.5,1.2,1.4,1.3,2.6L54,3.8c-0.1-0.5-0.3-0.9-0.5-1.1
			c-0.3-0.2-0.6-0.3-1.1-0.3c-0.4,0-0.7,0.1-0.9,0.3S51,2.9,51,3.1c0,0.2,0.1,0.3,0.2,0.5c0.2,0.1,0.5,0.3,1.1,0.4
			c1.5,0.3,2.5,0.7,3.1,1s1.1,0.8,1.4,1.3c0.3,0.5,0.4,1.1,0.4,1.7c0,0.7-0.2,1.4-0.6,2c-0.4,0.6-0.9,1.1-1.6,1.4
			c-0.7,0.3-1.6,0.5-2.6,0.5c-1.8,0-3.1-0.4-3.8-1.1S47.6,9,47.5,7.9z"/>
		<path class="st1" d="M58.2,0.3h10.1v2.8H65v8.5h-3.3V3.1h-3.4L58.2,0.3L58.2,0.3z"/>
		<path class="st1" d="M69.9,11.6V0.3h5.6c1,0,1.8,0.1,2.4,0.3c0.5,0.2,1,0.5,1.3,1s0.5,1.1,0.5,1.8c0,0.6-0.1,1.2-0.4,1.6
			s-0.6,0.8-1.1,1.1c-0.3,0.2-0.7,0.3-1.2,0.4c0.4,0.1,0.7,0.3,0.9,0.4C78,7,78.2,7.2,78.4,7.5c0.2,0.3,0.4,0.5,0.5,0.7l1.6,3.3
			h-3.8L75,8.1c-0.2-0.4-0.4-0.7-0.6-0.9C74.1,7.1,73.9,7,73.5,7h-0.3v4.6H69.9z M73.3,4.9h1.4c0.2,0,0.4-0.1,0.9-0.2
			c0.2,0,0.4-0.2,0.5-0.4c0.1-0.2,0.2-0.4,0.2-0.7c0-0.4-0.1-0.6-0.3-0.8c-0.2-0.2-0.6-0.3-1.2-0.3h-1.5V4.9z"/>
		<path class="st1" d="M0.3,19.2H4l1.9,3.5l1.9-3.5h3.6L8,24.7l3.7,5.8H8l-2.1-3.6l-2.1,3.6H0l3.7-5.9L0.3,19.2z"/>
		<path class="st1" d="M12.9,19.2h3.3v11.3h-3.3C12.9,30.5,12.9,19.2,12.9,19.2z"/>
		<path class="st1" d="M18.4,19.2h9.4v2.3l-6.1,6.6H28v2.4H17.8v-2.3l6-6.5h-5.4V19.2z"/>
		<path class="st1" d="M29.5,19.2h4.4l1.7,6.9l1.7-6.9h4.4v11.3H39v-8.6l-2.1,8.6h-2.5l-2.1-8.6v8.6h-2.7V19.2H29.5z"/>
		<path class="st1" d="M50.4,28.7h-3.8l-0.5,1.9h-3.4l4.1-11.3h3.6l4.1,11.3H51L50.4,28.7z M49.7,26.2l-1.2-4.1l-1.2,4.1H49.7z"/>
		<path class="st1" d="M53.7,19.2h10.1V22h-3.4v8.5h-3.3V22h-3.4V19.2z"/>
		<path class="st1" d="M65.4,19.2h3.3v11.3h-3.3V19.2z"/>
		<path class="st1" d="M82.5,19v11.5h-3V23c-0.5,0.4-1,0.7-1.4,0.9c-0.5,0.2-1,0.5-1.7,0.7V22c1-0.3,1.8-0.8,2.4-1.2
			c0.6-0.5,1-1.1,1.3-1.8H82.5z"/>
		<path class="st1" d="M86,27.4h3.2v3.1H86V27.4z"/>
		<path class="st1" d="M94.9,19v11.5h-3V23c-0.5,0.4-1,0.7-1.4,0.9c-0.5,0.2-1,0.5-1.7,0.7V22c1-0.3,1.8-0.8,2.4-1.2
			c0.6-0.5,1-1.1,1.3-1.8H94.9z"/>
	</g>
</g>
<g>
	<path class="st2" d="M121.8,11.1L110.9,0.2c-0.1-0.1-0.2-0.2-0.4-0.2H96.3c-0.3,0-0.5,0.2-0.5,0.5c0,0.1,0.1,0.3,0.2,0.4L121.1,26
		c0.1,0.1,0.2,0.2,0.4,0.2c0.1,0,0.1,0,0.2,0c0.2-0.1,0.3-0.3,0.3-0.5V11.5C122,11.3,121.9,11.2,121.8,11.1z"/>
	<g>
		<path class="st3" d="M107.3,8.7c-0.3,0-0.5-0.2-0.5-0.5V8.1l0.7-3.7l-2,2c-0.2,0.2-0.6,0.2-0.8,0c-0.2-0.2-0.2-0.5,0-0.8l3.3-3.3
			c0.2-0.2,0.6-0.2,0.8,0c0.1,0.1,0.2,0.3,0.1,0.5l-0.7,3.7l2-2c0.2-0.2,0.6-0.2,0.8,0c0.2,0.2,0.2,0.6,0,0.8l0,0l-3.3,3.3
			C107.5,8.7,107.4,8.7,107.3,8.7z"/>
		<path class="st3" d="M110.5,12c-0.1,0-0.3-0.1-0.4-0.2l-1.6-1.6c-0.2-0.2-0.2-0.6,0-0.8l3.3-3.3c0.2-0.2,0.6-0.2,0.8,0l1.6,1.6
			c0.2,0.2,0.2,0.6,0,0.8s-0.6,0.2-0.8,0l0,0l-1.3-1.3l-2.5,2.5l1.3,1.3c0.2,0.2,0.2,0.6,0,0.8C110.8,12,110.7,12,110.5,12z"/>
		<path class="st3" d="M111.6,9.8c-0.1,0-0.3-0.1-0.4-0.2l-1.1-1.1c-0.2-0.2-0.2-0.6,0-0.8c0.2-0.2,0.5-0.2,0.8,0l1.1,1.1
			c0.2,0.2,0.2,0.6,0,0.8C111.9,9.8,111.8,9.8,111.6,9.8z"/>
		<path class="st3" d="M114.9,16.4c-0.3,0-0.5-0.2-0.5-0.5c0-0.1,0-0.1,0-0.2l0.7-2.2l-2.2,0.7c-0.2,0.1-0.4,0-0.6-0.2
			c-0.1-0.2-0.2-0.4-0.1-0.6l2.2-4.4c0.1-0.3,0.5-0.4,0.7-0.2c0.3,0.1,0.4,0.5,0.2,0.7l0,0l-1.6,3.2l2-0.7c0.2-0.1,0.4,0,0.6,0.1
			c0.1,0.1,0.2,0.4,0.1,0.6l-0.7,2l3.2-1.6c0.3-0.1,0.6,0,0.7,0.2c0.1,0.3,0,0.6-0.2,0.7l-4.4,2.2C115.1,16.4,115,16.4,114.9,16.4z"
			/>
	</g>
</g>
</svg>
