<?xml version="1.0" encoding="utf-8"?>
<!-- Generator: Adobe Illustrator 23.0.3, SVG Export Plug-In . SVG Version: 6.00 Build 0)  -->
<svg version="1.1" id="Слой_1" xmlns="http://www.w3.org/2000/svg" xmlns:xlink="http://www.w3.org/1999/xlink" x="0px" y="0px"
	 viewBox="0 0 40 30" style="enable-background:new 0 0 40 30;" xml:space="preserve">
<style type="text/css">
	.st0{opacity:0.22;}
	.st1{fill:#52AC62;}
	.st2{fill:#7F7E7C;}
</style>
<title>majestic_mini</title>
<desc>Created with Sketch.</desc>
<g class="st0">
	<path class="st1" d="M18.9,11.2h6.3l3.3,6l3.2-6h6.2l-5.8,9.4l6.3,10H32l-3.7-6.2l-3.7,6.2h-6.4l6.4-10.1L18.9,11.2z"/>
	<path class="st2" d="M3.7,1.4h5.7v7.4l6-7.4H23l-6.8,7.3l7.1,12.1h-7l-3.9-8l-3,3.3v4.7H3.7V1.4z"/>
</g>
<g>
	<path class="st1" d="M17.9,10.2h6.3l3.3,6l3.2-6h6.2l-5.8,9.4l6.3,10H31l-3.7-6.2l-3.7,6.2h-6.4l6.4-10.1L17.9,10.2z"/>
	<path class="st2" d="M2.7,0.4h5.7v7.4l6-7.4H22l-6.8,7.3l7.1,12.1h-7l-3.9-8l-3,3.3v4.7H2.7V0.4z"/>
</g>
</svg>
